<svg width="72" height="72" viewBox="0 0 72 72" fill="none" xmlns="http://www.w3.org/2000/svg">
<path d="M36 72C55.8823 72 72 55.8823 72 36C72 16.1178 55.8823 0 36 0C16.1178 0 0 16.1178 0 36C0 55.8823 16.1178 72 36 72Z" fill="#90DFAA"/>
<path d="M5.24414 54.7229C11.5654 65.0835 22.9748 72.0001 36 72.0001C49.0252 72.0001 60.4347 65.0835 66.7559 54.7229H5.24414Z" fill="#2C9984"/>
<path d="M46.2613 42.1512H43.5117V17.9292C43.5117 17.7874 43.6251 17.6882 43.7527 17.6882H46.0204C46.1621 17.6882 46.2613 17.8016 46.2613 17.9292V42.1512Z" fill="#2B3B4E"/>
<path d="M66.2893 49.1386L49.9618 47.3103V18.2835C49.9618 17.7449 49.5224 17.3055 48.9838 17.3055C48.4452 17.3055 48.0059 17.7449 48.0059 18.2835V50.6835H49.9476H66.1901C66.6153 50.6835 66.9555 50.3433 66.9555 49.9181C66.9696 49.5071 66.6862 49.1811 66.2893 49.1386Z" fill="#2B3B4E"/>
<path d="M49.2935 22.0251H44.9707V22.9889H49.2935V22.0251Z" fill="#2B3B4E"/>
<path d="M49.2935 36.4961H44.9707V37.4599H49.2935V36.4961Z" fill="#2B3B4E"/>
<path d="M25.0857 41.3716L22.7471 36.4819C22.4494 35.8583 21.8258 35.4756 21.1455 35.4756H10.4022C9.59432 35.4756 8.89983 36.0142 8.68723 36.7795C7.76597 40.1528 5.93763 47.9764 7.99275 50.1874H38.1109C38.1109 50.1874 39.8542 43.937 46.2746 43.8803C46.9691 43.8803 47.5361 43.3276 47.5361 42.6189C47.5361 41.9244 46.9691 41.3575 46.2746 41.3575H25.0857V41.3716Z" fill="#FFD05B"/>
<path d="M43.5119 54.6804C46.5334 54.6804 48.9827 52.231 48.9827 49.2095C48.9827 46.188 46.5334 43.7386 43.5119 43.7386C40.4904 43.7386 38.041 46.188 38.041 49.2095C38.041 52.231 40.4904 54.6804 43.5119 54.6804Z" fill="#324A5E"/>
<path d="M43.5121 52.7528C45.469 52.7528 47.0554 51.1664 47.0554 49.2094C47.0554 47.2525 45.469 45.6661 43.5121 45.6661C41.5551 45.6661 39.9688 47.2525 39.9688 49.2094C39.9688 51.1664 41.5551 52.7528 43.5121 52.7528Z" fill="#ACB3BA"/>
<path d="M43.5126 50.6693C44.3188 50.6693 44.9724 50.0157 44.9724 49.2095C44.9724 48.4032 44.3188 47.7496 43.5126 47.7496C42.7063 47.7496 42.0527 48.4032 42.0527 49.2095C42.0527 50.0157 42.7063 50.6693 43.5126 50.6693Z" fill="#E6E9EE"/>
<path d="M17.7306 54.6804C20.7521 54.6804 23.2015 52.231 23.2015 49.2095C23.2015 46.188 20.7521 43.7386 17.7306 43.7386C14.7092 43.7386 12.2598 46.188 12.2598 49.2095C12.2598 52.231 14.7092 54.6804 17.7306 54.6804Z" fill="#324A5E"/>
<path d="M17.7308 52.7528C19.6877 52.7528 21.2741 51.1664 21.2741 49.2094C21.2741 47.2525 19.6877 45.6661 17.7308 45.6661C15.7739 45.6661 14.1875 47.2525 14.1875 49.2094C14.1875 51.1664 15.7739 52.7528 17.7308 52.7528Z" fill="#ACB3BA"/>
<path d="M17.7313 50.6693C18.5376 50.6693 19.1912 50.0157 19.1912 49.2095C19.1912 48.4032 18.5376 47.7496 17.7313 47.7496C16.9251 47.7496 16.2715 48.4032 16.2715 49.2095C16.2715 50.0157 16.9251 50.6693 17.7313 50.6693Z" fill="#E6E9EE"/>
<path d="M19.2889 38.2394L22.3219 19.9418C22.5487 18.5386 23.8526 17.5465 25.27 17.7024L34.4967 17.6882C37.7566 17.6882 40.4211 20.2961 40.492 23.5559L40.8605 41.0032C40.9881 41.5559 40.9172 42.137 40.6904 42.6615C40.1377 43.9229 38.7062 46.0205 35.177 46.304C33.8731 46.4174 32.8952 46.4599 32.1581 46.4882C30.8826 46.5166 29.777 45.652 29.4794 44.4189C29.2385 43.3701 28.3881 42.5764 27.3392 42.3922L21.4574 41.3292C20.0117 41.0599 19.0479 39.6851 19.2889 38.2394Z" fill="#324A5E"/>
<path d="M35.4334 33.1086C36.468 33.1086 37.3042 32.2582 37.2759 31.2236L37.12 23.6267C37.0916 22.2236 35.9153 21.0756 34.5121 21.0756L27.1279 21.0897C26.2208 21.0897 25.4554 21.7417 25.3137 22.6346L23.9389 30.9685C23.7546 32.0882 24.6192 33.1228 25.7672 33.1228H35.4334V33.1086Z" fill="#90DFAA"/>
<path d="M10.5594 41.1449L7.42709 40.4787C7.32788 40.4646 7.27119 40.3653 7.28536 40.2661L7.97985 37.0346C7.99402 36.9354 8.09323 36.8787 8.19244 36.8929L11.3247 37.559C11.4239 37.5732 11.4806 37.6724 11.4665 37.7716L10.772 41.0031C10.7578 41.1024 10.6586 41.159 10.5594 41.1449Z" fill="#FF7058"/>
</svg>
