<svg width="20" height="20" viewBox="0 0 20 20" fill="none" xmlns="http://www.w3.org/2000/svg">
<path d="M9.83301 5.5C9.83301 5.94287 9.83132 6.37619 9.87891 6.73047C9.93044 7.11348 10.0561 7.55101 10.4189 7.91406C10.782 8.27704 11.2195 8.40256 11.6025 8.4541C11.9569 8.50174 12.39 8.5 12.833 8.5H16.667V13.333C16.667 15.69 16.6668 16.8693 15.9346 17.6016C15.2024 18.3336 14.0236 18.333 11.667 18.333H8.33301C5.97638 18.333 4.79764 18.3336 4.06543 17.6016C3.3332 16.8693 3.33301 15.69 3.33301 13.333V6.66699C3.33301 4.30997 3.3332 3.13067 4.06543 2.39844C4.79764 1.6664 5.97638 1.66699 8.33301 1.66699H9.83301V5.5ZM7.5 13.167C6.94772 13.167 6.5 13.6147 6.5 14.167C6.50018 14.7191 6.94782 15.167 7.5 15.167H10.833C11.3852 15.167 11.8328 14.7191 11.833 14.167C11.833 13.6147 11.3853 13.167 10.833 13.167H7.5ZM7.5 9.83301C6.94782 9.83301 6.50018 10.2809 6.5 10.833C6.5 11.3853 6.94772 11.833 7.5 11.833H12.5C13.0523 11.833 13.5 11.3853 13.5 10.833C13.4998 10.2809 13.0522 9.83301 12.5 9.83301H7.5ZM11.833 1.67871C12.0868 1.69207 12.2726 1.7216 12.4473 1.79395C12.7535 1.92081 12.9949 2.16091 13.4766 2.64258L15.6904 4.85742C16.172 5.33896 16.4132 5.57952 16.54 5.88574C16.6124 6.06034 16.6409 6.24635 16.6543 6.5H12.833C12.3336 6.5 12.0593 6.49723 11.8691 6.47168C11.8666 6.47126 11.8638 6.47007 11.8613 6.46973C11.8611 6.46792 11.8606 6.46573 11.8604 6.46387C11.8348 6.27373 11.833 5.99915 11.833 5.5V1.67871Z" fill="white"/>
</svg>
