<svg width="512" height="74" viewBox="0 0 512 74" fill="none" xmlns="http://www.w3.org/2000/svg">
<path d="M493.615 0L461.5 42H418.5L450.615 0H493.615Z" fill="#145C72"/>
<path d="M444.5 0L387.68 74H366.795L423.615 0H444.5Z" fill="#13A2BA"/>
<path d="M511.513 0L478.897 42H467L499.616 0H511.513Z" fill="#FFF11E"/>
<path d="M417.411 0L372.795 58H-58.1152L-13.4999 0H417.411Z" fill="#13A2BA"/>
<path d="M180.36 41C180.04 41 179.92 40.84 180 40.52L188.76 15.16C188.84 14.92 189 14.8 189.24 14.8H193.52C193.787 14.8 193.96 14.92 194.04 15.16L202.88 40.52C202.96 40.84 202.84 41 202.52 41H199.08C198.813 41 198.64 40.88 198.56 40.64L192.96 23.36C192.693 22.5333 192.427 21.7067 192.16 20.88C191.893 20.0267 191.627 19.1867 191.36 18.36H191.28C191.04 19.1867 190.787 20.0133 190.52 20.84C190.253 21.64 189.987 22.4533 189.72 23.28L184.2 40.64C184.12 40.88 183.947 41 183.68 41H180.36ZM185.28 35.16L186.16 31.76H196.52L197.44 35.16H185.28ZM206.531 41C206.237 41 206.091 40.8533 206.091 40.56V15.24C206.091 14.9467 206.237 14.8 206.531 14.8H214.531C217.837 14.8 220.264 15.4267 221.811 16.68C223.357 17.9333 224.131 19.7867 224.131 22.24C224.131 24.1333 223.691 25.72 222.811 27C221.931 28.2533 220.651 29.12 218.971 29.6V29.64L225.571 40.48C225.651 40.6133 225.664 40.7333 225.611 40.84C225.557 40.9467 225.437 41 225.251 41H221.571C221.331 41 221.157 40.9067 221.051 40.72L214.731 30.16H210.131V40.56C210.131 40.8533 209.984 41 209.691 41H206.531ZM210.131 26.96H214.251C216.304 26.96 217.784 26.6 218.691 25.88C219.624 25.16 220.091 24.0133 220.091 22.44C220.091 20.92 219.664 19.84 218.811 19.2C217.957 18.56 216.517 18.24 214.491 18.24H210.131V26.96ZM235.684 41C235.391 41 235.244 40.8533 235.244 40.56V18.4H228.204C227.911 18.4 227.764 18.2533 227.764 17.96V15.24C227.764 14.9467 227.911 14.8 228.204 14.8H246.364C246.658 14.8 246.804 14.9467 246.804 15.24V17.96C246.804 18.2533 246.658 18.4 246.364 18.4H239.284V40.56C239.284 40.8533 239.138 41 238.844 41H235.684ZM251.687 41C251.394 41 251.247 40.8533 251.247 40.56V15.24C251.247 14.9467 251.394 14.8 251.687 14.8H254.847C255.14 14.8 255.287 14.9467 255.287 15.24V40.56C255.287 40.8533 255.14 41 254.847 41H251.687ZM271.357 41.48C268.05 41.48 265.53 40.6667 263.797 39.04C262.063 37.3867 261.197 35 261.197 31.88V23.96C261.197 20.8133 262.063 18.4267 263.797 16.8C265.557 15.1467 268.09 14.32 271.397 14.32C273.557 14.32 275.437 14.68 277.037 15.4C278.637 16.12 279.823 17.16 280.597 18.52C281.397 19.8533 281.663 21.4533 281.397 23.32C281.37 23.48 281.33 23.6133 281.277 23.72C281.223 23.8267 281.117 23.88 280.957 23.88H277.757C277.463 23.88 277.33 23.7333 277.357 23.44C277.437 21.68 276.97 20.3067 275.957 19.32C274.943 18.3333 273.437 17.84 271.437 17.84C269.437 17.84 267.903 18.36 266.837 19.4C265.77 20.44 265.237 21.96 265.237 23.96V31.84C265.237 33.84 265.77 35.36 266.837 36.4C267.903 37.44 269.437 37.96 271.437 37.96C273.463 37.96 274.997 37.4667 276.037 36.48C277.103 35.4667 277.543 34.0933 277.357 32.36C277.33 32.0667 277.463 31.92 277.757 31.92H280.917C281.183 31.92 281.343 32.1067 281.397 32.48C281.557 34.2933 281.237 35.88 280.437 37.24C279.663 38.5733 278.49 39.6133 276.917 40.36C275.343 41.1067 273.49 41.48 271.357 41.48ZM287.624 41C287.331 41 287.184 40.8533 287.184 40.56V15.24C287.184 14.9467 287.331 14.8 287.624 14.8H290.824C291.091 14.8 291.224 14.9467 291.224 15.24V37.4H302.024C302.318 37.4 302.464 37.5467 302.464 37.84V40.56C302.464 40.8533 302.318 41 302.024 41H287.624ZM306.882 41C306.589 41 306.442 40.8533 306.442 40.56V15.24C306.442 14.9467 306.589 14.8 306.882 14.8H321.602C321.869 14.8 322.002 14.9467 322.002 15.24V17.96C322.002 18.2533 321.869 18.4 321.602 18.4H310.482V26H320.642C320.909 26 321.042 26.1333 321.042 26.4V29C321.042 29.2933 320.909 29.44 320.642 29.44H310.482V37.4H321.602C321.869 37.4 322.002 37.5467 322.002 37.84V40.56C322.002 40.8533 321.869 41 321.602 41H306.882ZM335.808 41.48C332.528 41.48 330.128 40.8 328.608 39.44C327.088 38.0533 326.421 36.2 326.608 33.88C326.634 33.4267 326.808 33.2 327.128 33.2H330.208C330.528 33.2 330.688 33.4 330.688 33.8C330.688 35.2667 331.128 36.3333 332.008 37C332.888 37.6667 334.248 38 336.088 38C337.848 38 339.168 37.6933 340.048 37.08C340.954 36.4667 341.408 35.5333 341.408 34.28C341.408 33.6667 341.301 33.1467 341.088 32.72C340.901 32.2667 340.554 31.8667 340.048 31.52C339.541 31.1733 338.874 30.8267 338.048 30.48L332.168 28.04C330.914 27.5067 329.901 26.92 329.128 26.28C328.381 25.64 327.834 24.9067 327.488 24.08C327.168 23.2533 327.008 22.3067 327.008 21.24C327.034 19 327.781 17.2933 329.248 16.12C330.741 14.9467 332.914 14.36 335.768 14.36C337.741 14.36 339.434 14.64 340.848 15.2C342.288 15.76 343.354 16.5867 344.048 17.68C344.768 18.7733 345.061 20.12 344.928 21.72C344.874 22.2 344.714 22.44 344.448 22.44H341.328C341.194 22.44 341.088 22.3867 341.008 22.28C340.954 22.1733 340.941 21.9867 340.968 21.72C341.048 20.4933 340.621 19.5333 339.688 18.84C338.754 18.1467 337.421 17.8 335.688 17.8C334.168 17.8 333.021 18.08 332.248 18.64C331.474 19.1733 331.074 19.9867 331.048 21.08C331.048 21.6667 331.154 22.1733 331.368 22.6C331.581 23.0267 331.941 23.4267 332.448 23.8C332.954 24.1733 333.648 24.5467 334.528 24.92L340.328 27.36C341.581 27.8667 342.581 28.44 343.328 29.08C344.101 29.72 344.648 30.4533 344.968 31.28C345.288 32.1067 345.448 33.1067 345.448 34.28C345.448 36.5467 344.674 38.32 343.128 39.6C341.581 40.8533 339.141 41.48 335.808 41.48Z" fill="#FFF11E"/>
</svg>
