<svg width="71" height="72" viewBox="0 0 71 72" fill="none" xmlns="http://www.w3.org/2000/svg">
<path d="M35.5 71.0012C55.1061 71.0012 71 55.1073 71 35.5012C71 15.8951 55.1061 0.0012207 35.5 0.0012207C15.8939 0.0012207 0 15.8951 0 35.5012C0 55.1073 15.8939 71.0012 35.5 71.0012Z" fill="#FD8469"/>
<path d="M21.9688 19.8042H21.4102V29.2448H21.9688V19.8042Z" fill="#324A5E"/>
<path d="M33.2107 32.9037H10.1678C10.0281 32.9037 9.9164 32.806 9.88847 32.6663C9.87451 32.5267 9.94433 32.401 10.084 32.3591L21.6054 28.77C21.6613 28.756 21.7171 28.756 21.773 28.77L33.2945 32.3591C33.4201 32.401 33.5039 32.5267 33.49 32.6663C33.462 32.806 33.3503 32.9037 33.2107 32.9037ZM11.9972 32.3451H31.3952L21.7032 29.3286L11.9972 32.3451Z" fill="#324A5E"/>
<path d="M52.8438 59.6614H45.7773V60.7646H52.8438V59.6614Z" fill="white"/>
<path d="M56.8099 15.8379H21.4635C21.3657 15.8379 21.282 15.8658 21.1982 15.9077L14.9696 19.3153C14.7462 19.441 14.6344 19.6923 14.7043 19.9437C14.7741 20.1951 14.9836 20.3627 15.2349 20.3627H45.3443V64.0743H53.2766V20.3627H56.8099C56.9635 20.3627 57.1032 20.3068 57.2009 20.1951C57.2987 20.0834 57.3685 19.9437 57.3685 19.8041V16.3965C57.3685 16.0893 57.1171 15.8379 56.8099 15.8379ZM22.0221 16.9551H25.9464V19.2594H22.0221V16.9551ZM27.0636 16.9551H31.0019V19.2594H27.0636V16.9551ZM32.1051 16.9551H36.0294V19.2594H32.1051V16.9551ZM37.1466 16.9551H41.0709V19.2594H37.1466V16.9551ZM42.1881 16.9551H46.1264V19.2594H42.1881V16.9551ZM48.5284 23.1697L46.4615 25.2366V21.0889L48.5284 23.1697ZM47.2855 20.3627H51.3355L49.3105 22.3877L47.2855 20.3627ZM47.2855 25.9907L49.3105 23.9657L51.3355 25.9907H47.2855ZM51.3355 27.094L49.3105 29.119L47.2855 27.094H51.3355ZM46.4476 27.8342L48.5145 29.901L46.4476 31.9679V27.8342ZM47.2855 32.722L49.3105 30.6971L51.3355 32.722H47.2855ZM51.3355 33.8253L49.3105 35.8503L47.2855 33.8253H51.3355ZM46.4476 34.5655L48.5145 36.6323L46.4476 38.7132V34.5655ZM47.2855 39.4534L49.3105 37.4284L51.3355 39.4534H47.2855ZM51.3355 40.5706L49.3105 42.5956L47.2855 40.5706H51.3355ZM46.4476 41.3107L48.5145 43.3776L46.4476 45.4445V41.3107ZM47.2855 46.1847L49.3105 44.1597L51.3355 46.1847H47.2855ZM51.3355 47.3019L49.3105 49.3269L47.2855 47.3019H51.3355ZM46.4476 48.0421L48.5145 50.1089L46.4476 52.1758V48.0421ZM49.3105 50.891L51.3355 52.916H47.2855L49.3105 50.891ZM46.4476 54.7734L48.5145 56.8402L46.4476 58.9071V54.7734ZM47.2855 54.0332H51.3355L49.3105 56.0582L47.2855 54.0332ZM52.1594 54.7734V58.9211L50.0925 56.8542L52.1594 54.7734ZM50.0925 50.1089L52.1594 48.0421V52.1898L50.0925 50.1089ZM50.0925 43.3776L52.1594 41.3107V45.4585L50.0925 43.3776ZM50.0925 36.6463L52.1594 34.5794V38.7132L50.0925 36.6463ZM50.0925 29.915L52.1594 27.8481V31.9958L50.0925 29.915ZM50.0925 23.1697L52.1594 21.1028V25.2506L50.0925 23.1697ZM47.2296 19.2454V16.9412H51.1539V19.2454H47.2296ZM20.9189 17.3322V19.2594H17.4135L20.9189 17.3322ZM46.4476 62.9711V60.4852L49.3105 57.6223L52.1734 60.4852V62.9711H46.4476ZM56.2513 19.2454H52.2711V16.9412H56.2513V19.2454Z" fill="white"/>
<path d="M34.0471 46.7434H9.34229C9.23057 46.7434 9.13281 46.6456 9.13281 46.5339V31.968C9.13281 31.8563 9.23057 31.7585 9.34229 31.7585H34.0471C34.1588 31.7585 34.2565 31.8563 34.2565 31.968V46.5339C34.2565 46.6456 34.1588 46.7434 34.0471 46.7434Z" fill="#E6E9EE"/>
<path d="M12.2198 33.127H10.6836V45.3746H12.2198V33.127Z" fill="#CED5E0"/>
<path d="M15.1378 33.127H13.6016V45.3746H15.1378V33.127Z" fill="#CED5E0"/>
<path d="M18.0713 33.127H16.5352V45.3746H18.0713V33.127Z" fill="#CED5E0"/>
<path d="M20.9893 33.127H19.4531V45.3746H20.9893V33.127Z" fill="#CED5E0"/>
<path d="M23.9229 33.127H22.3867V45.3746H23.9229V33.127Z" fill="#CED5E0"/>
<path d="M26.8565 33.127H25.3203V45.3746H26.8565V33.127Z" fill="#CED5E0"/>
<path d="M29.7745 33.127H28.2383V45.3746H29.7745V33.127Z" fill="#CED5E0"/>
<path d="M32.7081 33.127H31.1719V45.3746H32.7081V33.127Z" fill="#CED5E0"/>
<path d="M55.9468 59.6055H42.6797V61.6304H55.9468V59.6055Z" fill="#324A5E"/>
<path d="M11.4805 61.6443C17.8068 67.4539 26.2419 71.0151 35.5009 71.0151C44.76 71.0151 53.1951 67.4679 59.5214 61.6443H11.4805Z" fill="#F1543F"/>
</svg>
