<svg width="36" height="36" viewBox="0 0 36 36" fill="none" xmlns="http://www.w3.org/2000/svg">
<path d="M9.14062 11.4254H27C27.6682 11.4254 28.2656 12.0228 28.2656 12.691V15.6441C28.2656 16.3473 27.6682 16.9098 27 16.9098H9.14062C8.4375 16.9098 7.875 16.3473 7.875 15.6441V12.691C7.875 12.0228 8.4375 11.4254 9.14062 11.4254ZM26.7188 14.4494V13.8869C26.7188 13.6754 26.5072 13.465 26.2969 13.465H24.0469C23.8005 13.465 23.625 13.6765 23.625 13.8869V14.4494C23.625 14.6958 23.8005 14.8713 24.0469 14.8713H26.2969C26.5084 14.8713 26.7188 14.6958 26.7188 14.4494ZM9.14062 17.8941H27C27.6682 17.8941 28.2656 18.4566 28.2656 19.1598V22.1129C28.2656 22.816 27.6682 23.3785 27 23.3785H9.14062C8.4375 23.3785 7.875 22.816 7.875 22.1129V19.1598C7.875 18.4566 8.4375 17.8941 9.14062 17.8941ZM26.7188 20.9181V20.3556C26.7188 20.1441 26.5072 19.9338 26.2969 19.9338H24.0469C23.8005 19.9338 23.625 20.1453 23.625 20.3556V20.9181C23.625 21.1645 23.8005 21.34 24.0469 21.34H26.2969C26.5084 21.34 26.7188 21.1645 26.7188 20.9181ZM9.14062 24.3629H27C27.6682 24.3629 28.2656 24.9254 28.2656 25.6285V28.5816C28.2656 29.2848 27.6682 29.8473 27 29.8473H9.14062C8.4375 29.8473 7.875 29.2848 7.875 28.5816V25.6285C7.875 24.9254 8.4375 24.3629 9.14062 24.3629ZM26.7188 27.3869V26.8244C26.7188 26.578 26.5072 26.4025 26.2969 26.4025H24.0469C23.8005 26.4025 23.625 26.578 23.625 26.8244V27.3869C23.625 27.6333 23.8005 27.8088 24.0469 27.8088H26.2969C26.5084 27.8088 26.7188 27.6333 26.7188 27.3869ZM27 10.477H9.14062C8.92912 10.477 8.71875 10.5119 8.54325 10.5828L10.6875 7.66451C11.1094 7.10201 12.024 6.64526 12.7271 6.64526H23.4146C24.0829 6.64526 24.9964 7.10201 25.4182 7.66451L27.5985 10.5828C27.387 10.5119 27.1755 10.477 27 10.477Z" fill="white"/>
</svg>
