<svg width="19" height="21" viewBox="0 0 19 21" fill="none" xmlns="http://www.w3.org/2000/svg">
<path d="M11.417 2.625C14.2452 2.625 15.6594 2.62526 16.5381 3.50391C17.4166 4.3826 17.417 5.79675 17.417 8.625V12.375C17.417 15.2033 17.4166 16.6174 16.5381 17.4961C15.6594 18.3747 14.2452 18.375 11.417 18.375H7.58301C4.7548 18.375 3.34056 18.3747 2.46191 17.4961C1.5834 16.6174 1.58301 15.2033 1.58301 12.375V8.625C1.58301 5.79675 1.5834 4.3826 2.46191 3.50391C3.34056 2.62526 4.7548 2.625 7.58301 2.625H11.417ZM6.33301 8.625C5.78087 8.62518 5.33301 9.07282 5.33301 9.625V14.875C5.33301 15.4272 5.78087 15.8748 6.33301 15.875C6.88529 15.875 7.33301 15.4273 7.33301 14.875V9.625C7.33301 9.07272 6.88529 8.625 6.33301 8.625ZM9.5 10.375C8.94772 10.375 8.5 10.8227 8.5 11.375V14.875C8.5 15.4273 8.94772 15.875 9.5 15.875C10.0523 15.875 10.5 15.4273 10.5 14.875V11.375C10.5 10.8227 10.0523 10.375 9.5 10.375ZM12.667 6.875C12.1147 6.875 11.667 7.32272 11.667 7.875V14.875C11.667 15.4273 12.1147 15.875 12.667 15.875C13.2191 15.8748 13.667 15.4272 13.667 14.875V7.875C13.667 7.32282 13.2191 6.87518 12.667 6.875Z" fill="white"/>
</svg>
