<svg width="71" height="71" viewBox="0 0 71 71" fill="none" xmlns="http://www.w3.org/2000/svg">
<g clip-path="url(#clip0_614_3881)">
<path d="M35.5 71C55.1061 71 71 55.1061 71 35.5C71 15.8939 55.1061 0 35.5 0C15.8939 0 0 15.8939 0 35.5C0 55.1061 15.8939 71 35.5 71Z" fill="#179FB7"/>
<path d="M9.21094 59.3438C15.696 66.4997 25.0741 71 35.5005 71C45.9269 71 55.305 66.4997 61.7901 59.3438H9.21094Z" fill="#273B4A"/>
<path d="M59.1905 20.8668V59.3437H11.8105V20.8668L35.5005 13.1099L59.1905 20.8668Z" fill="white"/>
<path d="M59.1765 55.7798H11.8105V59.3438H59.1765V55.7798Z" fill="#E6E9EE"/>
<path d="M53.7952 33.3477H17.2051V59.3437H53.7952V33.3477Z" fill="#324A5E"/>
<path d="M50.1337 38.2114H21.3145V59.3577H50.1337V38.2114Z" fill="#FFF11E"/>
<path d="M50.1198 43.788V43.5085H44.5013V38.2114H44.2776V43.5085H38.5753V38.2114H38.3517V43.5085H32.6493V38.2114H32.4257V43.5085H26.7233V38.2114H26.4997V43.5085H21.3145V43.788H26.4997V48.6378H21.3145V48.9173H26.4997V53.7671H21.3145V54.0467H26.4997V59.2319H26.7233V54.0467H32.4257V59.2319H32.6493V54.0467H38.3517V59.2319H38.5753V54.0467H44.2776V59.2319H44.5013V54.0467H50.1198V53.7671H44.5013V48.9173H50.1198V48.6378H44.5013V43.788H50.1198ZM32.4257 53.7671H26.7233V48.9173H32.4257V53.7671ZM32.4257 48.6378H26.7233V43.788H32.4257V48.6378ZM38.3517 53.7671H32.6493V48.9173H38.3517V53.7671ZM38.3517 48.6378H32.6493V43.788H38.3517V48.6378ZM44.2776 53.7671H38.5753V48.9173H44.2776V53.7671ZM44.2776 48.6378H38.5753V43.788H44.2776V48.6378Z" fill="#E78700"/>
<path d="M27.0579 23.3126H17.0508V26.8906H27.0579V23.3126Z" fill="#E6E9EE"/>
<path d="M40.5032 23.3126H30.4961V26.8906H40.5032V23.3126Z" fill="#E6E9EE"/>
<path d="M53.9348 23.3126H43.9277V26.8906H53.9348V23.3126Z" fill="#E6E9EE"/>
<path d="M47.9808 38.2114H46.4434V38.8963H47.9808V38.2114Z" fill="#E6E9EE"/>
<path d="M42.1253 38.2114H40.5879V38.8963H42.1253V38.2114Z" fill="#E6E9EE"/>
<path d="M36.2679 38.2114H34.7305V38.8963H36.2679V38.2114Z" fill="#E6E9EE"/>
<path d="M30.4124 38.2114H28.875V38.8963H30.4124V38.2114Z" fill="#E6E9EE"/>
<path d="M24.5569 38.2114H23.0195V38.8963H24.5569V38.2114Z" fill="#E6E9EE"/>
<path d="M47.9808 43.76H46.4434V44.4449H47.9808V43.76Z" fill="#E6E9EE"/>
<path d="M42.1253 43.76H40.5879V44.4449H42.1253V43.76Z" fill="#E6E9EE"/>
<path d="M36.2679 43.76H34.7305V44.4449H36.2679V43.76Z" fill="#E6E9EE"/>
<path d="M30.4124 43.76H28.875V44.4449H30.4124V43.76Z" fill="#E6E9EE"/>
<path d="M24.5569 43.76H23.0195V44.4449H24.5569V43.76Z" fill="#E6E9EE"/>
<path d="M47.9808 48.9033H46.4434V49.5882H47.9808V48.9033Z" fill="#E6E9EE"/>
<path d="M42.1253 48.9033H40.5879V49.5882H42.1253V48.9033Z" fill="#E6E9EE"/>
<path d="M36.2679 48.9033H34.7305V49.5882H36.2679V48.9033Z" fill="#E6E9EE"/>
<path d="M30.4124 48.9033H28.875V49.5882H30.4124V48.9033Z" fill="#E6E9EE"/>
<path d="M24.5569 48.9033H23.0195V49.5882H24.5569V48.9033Z" fill="#E6E9EE"/>
<path d="M47.9808 54.0327H46.4434V54.7176H47.9808V54.0327Z" fill="#E6E9EE"/>
<path d="M42.1253 54.0327H40.5879V54.7176H42.1253V54.0327Z" fill="#E6E9EE"/>
<path d="M36.2679 54.0327H34.7305V54.7176H36.2679V54.0327Z" fill="#E6E9EE"/>
<path d="M30.4124 54.0327H28.875V54.7176H30.4124V54.0327Z" fill="#E6E9EE"/>
<path d="M24.5569 54.0327H23.0195V54.7176H24.5569V54.0327Z" fill="#E6E9EE"/>
</g>
<defs>
<clipPath id="clip0_614_3881">
<rect width="71" height="71" fill="white"/>
</clipPath>
</defs>
</svg>
