<svg width="24" height="24" viewBox="0 0 24 24" fill="none" xmlns="http://www.w3.org/2000/svg">
<path d="M12 12L17.1534 15.6377C17.6843 16.0124 18 16.6218 18 17.2716V19.5C18 19.7761 17.7761 20 17.5 20H6.5C6.22386 20 6 19.7761 6 19.5V17.2716C6 16.6218 6.31573 16.0124 6.84663 15.6377L12 12ZM12 12L17.1534 8.36233C17.6843 7.98757 18 7.37824 18 6.72839V4.5C18 4.22386 17.7761 4 17.5 4H6.5C6.22386 4 6 4.22386 6 4.5V6.72839C6 7.37824 6.31573 7.98757 6.84663 8.36233L12 12Z" stroke="white" stroke-width="2" stroke-linecap="round" stroke-linejoin="round"/>
<path d="M18 16.9736V21H6V16.9736L12 12.9473L18 16.9736ZM12.4375 15.917C12.1719 15.7437 11.8281 15.7437 11.5625 15.917L8.79785 17.7207C8.65656 17.813 8.57129 17.9708 8.57129 18.1396V19.9551C8.57129 20.0379 8.63884 20.1055 8.72168 20.1055H15.2783C15.3612 20.1055 15.4287 20.0379 15.4287 19.9551V18.1396C15.4287 17.9709 15.3434 17.813 15.2021 17.7207L12.4375 15.917Z" fill="white"/>
<path d="M18 8.5V4H6V8.5L12 13L18 8.5Z" fill="white"/>
</svg>
