<svg width="22" height="21" viewBox="0 0 22 21" fill="none" xmlns="http://www.w3.org/2000/svg">
<path d="M4.5835 12.614C4.5835 11.5787 4.5835 11.061 4.81526 10.6225C5.04702 10.184 5.47473 9.89234 6.33015 9.3091L9.87349 6.89319C10.419 6.52128 10.6917 6.33532 11.0002 6.33532C11.3086 6.33532 11.5814 6.52128 12.1268 6.89319L15.6702 9.3091C16.5256 9.89234 16.9533 10.184 17.1851 10.6225C17.4168 11.061 17.4168 11.5787 17.4168 12.614V16.375C17.4168 17.3178 17.4168 17.7892 17.1239 18.0821C16.831 18.375 16.3596 18.375 15.4168 18.375H6.58349C5.64069 18.375 5.16928 18.375 4.87639 18.0821C4.5835 17.7892 4.5835 17.3178 4.5835 16.375V12.614Z" fill="white"/>
<path d="M2.75 10.7786C2.75 11.0391 2.75 11.1693 2.83259 11.2108C2.91518 11.2524 3.01973 11.1747 3.22883 11.0195L9.8078 6.13512C10.3822 5.70869 10.6694 5.49547 11 5.49547C11.3306 5.49547 11.6178 5.70869 12.1922 6.13512L18.7712 11.0195C18.9803 11.1747 19.0848 11.2524 19.1674 11.2108C19.25 11.1693 19.25 11.0391 19.25 10.7786V10.6311C19.25 10.1375 19.25 9.89069 19.1433 9.67866C19.0367 9.46662 18.8385 9.3195 18.4422 9.02527L12.1922 4.38512C11.6178 3.95869 11.3306 3.74547 11 3.74547C10.6694 3.74547 10.3822 3.95869 9.8078 4.38512L3.5578 9.02527C3.16148 9.3195 2.96333 9.46662 2.85666 9.67866C2.75 9.89069 2.75 10.1375 2.75 10.6311V10.7786Z" fill="white"/>
<rect x="14.6665" y="4.375" width="1.83333" height="3.5" rx="0.5" fill="white"/>
</svg>
