<svg width="20" height="20" viewBox="0 0 20 20" fill="none" xmlns="http://www.w3.org/2000/svg">
<mask id="path-1-outside-1_329_2740" maskUnits="userSpaceOnUse" x="0.666504" y="0.666667" width="19" height="19" fill="black">
<rect fill="white" x="0.666504" y="0.666667" width="19" height="19"/>
<path d="M9.99985 1.66667C11.9278 1.66667 13.7961 2.33516 15.2865 3.55825C16.7768 4.78133 17.7969 6.48333 18.1731 8.37425C18.5492 10.2652 18.258 12.228 17.3492 13.9283C16.4404 15.6286 14.9701 16.9612 13.1889 17.699C11.4077 18.4368 9.42575 18.5342 7.58081 17.9745C5.73587 17.4148 4.14205 16.2328 3.07094 14.6298C1.99982 13.0267 1.51767 11.1019 1.70664 9.18319C1.89562 7.26451 2.74402 5.47072 4.1073 4.10744L6.46432 6.46447C5.64635 7.28243 5.13731 8.35871 5.02393 9.50991C4.91054 10.6611 5.19983 11.816 5.8425 12.7779C6.48517 13.7397 7.44146 14.4489 8.54843 14.7847C9.65539 15.1205 10.8445 15.0621 11.9133 14.6194C12.982 14.1767 13.8642 13.3772 14.4095 12.357C14.9548 11.3368 15.1295 10.1591 14.9038 9.02455C14.6781 7.89 14.066 6.8688 13.1718 6.13495C12.2776 5.4011 11.1566 5 9.99985 5V1.66667Z"/>
</mask>
<path d="M9.99985 1.66667C11.9278 1.66667 13.7961 2.33516 15.2865 3.55825C16.7768 4.78133 17.7969 6.48333 18.1731 8.37425C18.5492 10.2652 18.258 12.228 17.3492 13.9283C16.4404 15.6286 14.9701 16.9612 13.1889 17.699C11.4077 18.4368 9.42575 18.5342 7.58081 17.9745C5.73587 17.4148 4.14205 16.2328 3.07094 14.6298C1.99982 13.0267 1.51767 11.1019 1.70664 9.18319C1.89562 7.26451 2.74402 5.47072 4.1073 4.10744L6.46432 6.46447C5.64635 7.28243 5.13731 8.35871 5.02393 9.50991C4.91054 10.6611 5.19983 11.816 5.8425 12.7779C6.48517 13.7397 7.44146 14.4489 8.54843 14.7847C9.65539 15.1205 10.8445 15.0621 11.9133 14.6194C12.982 14.1767 13.8642 13.3772 14.4095 12.357C14.9548 11.3368 15.1295 10.1591 14.9038 9.02455C14.6781 7.89 14.066 6.8688 13.1718 6.13495C12.2776 5.4011 11.1566 5 9.99985 5V1.66667Z" fill="white"/>
<path d="M9.99985 1.66667V0.666667H8.99985V1.66667L9.99985 1.66667ZM15.2865 3.55825L15.9209 2.78524L15.2865 3.55825ZM17.3492 13.9283L18.2311 14.3997L17.3492 13.9283ZM13.1889 17.699L13.5716 18.6229L13.1889 17.699ZM7.58081 17.9745L7.29052 18.9314L7.58081 17.9745ZM3.07094 14.6298L2.23947 15.1853L3.07094 14.6298ZM1.70664 9.18319L0.71146 9.08517L1.70664 9.18319ZM4.1073 4.10744L4.8144 3.40034L4.1073 2.69323L3.40019 3.40033L4.1073 4.10744ZM6.46432 6.46447L7.17142 7.17157L7.87853 6.46447L7.17142 5.75736L6.46432 6.46447ZM5.02393 9.50991L4.02874 9.4119L5.02393 9.50991ZM14.4095 12.357L15.2914 12.8284L14.4095 12.357ZM14.9038 9.02455L15.8846 8.82946L14.9038 9.02455ZM13.1718 6.13495L12.5374 6.90796L13.1718 6.13495ZM9.99985 5H8.99985V6H9.99985V5ZM9.99985 1.66667V2.66667C11.6965 2.66667 13.3406 3.25494 14.6521 4.33126L15.2865 3.55825L15.9209 2.78524C14.2517 1.41538 12.1592 0.666667 9.99985 0.666667V1.66667ZM15.2865 3.55825L14.6521 4.33126C15.9636 5.40757 16.8613 6.90533 17.1923 8.56934L18.1731 8.37425L19.1538 8.17916C18.7326 6.06133 17.59 4.15509 15.9209 2.78524L15.2865 3.55825ZM18.1731 8.37425L17.1923 8.56934C17.5233 10.2333 17.267 11.9606 16.4673 13.4569L17.3492 13.9283L18.2311 14.3997C19.249 12.4954 19.5751 10.297 19.1538 8.17916L18.1731 8.37425ZM17.3492 13.9283L16.4673 13.4569C15.6675 14.9532 14.3737 16.1259 12.8062 16.7751L13.1889 17.699L13.5716 18.6229C15.5665 17.7965 17.2132 16.3041 18.2311 14.3997L17.3492 13.9283ZM13.1889 17.699L12.8062 16.7751C11.2387 17.4244 9.49465 17.5101 7.87109 17.0176L7.58081 17.9745L7.29052 18.9314C9.35686 19.5583 11.5766 19.4492 13.5716 18.6229L13.1889 17.699ZM7.58081 17.9745L7.87109 17.0176C6.24754 16.5251 4.84499 15.4849 3.90241 14.0742L3.07094 14.6298L2.23947 15.1853C3.43912 16.9807 5.22419 18.3046 7.29052 18.9314L7.58081 17.9745ZM3.07094 14.6298L3.90241 14.0742C2.95982 12.6635 2.53553 10.9696 2.70183 9.28121L1.70664 9.18319L0.71146 9.08517C0.499809 11.2341 1.03981 13.3899 2.23947 15.1853L3.07094 14.6298ZM1.70664 9.18319L2.70183 9.28121C2.86813 7.59277 3.61472 6.01423 4.8144 4.81455L4.1073 4.10744L3.40019 3.40033C1.87332 4.9272 0.92311 6.93625 0.71146 9.08517L1.70664 9.18319ZM4.1073 4.10744L3.40019 4.81455L5.75721 7.17157L6.46432 6.46447L7.17142 5.75736L4.8144 3.40034L4.1073 4.10744ZM6.46432 6.46447L5.75721 5.75736C4.77565 6.73892 4.1648 8.03045 4.02874 9.4119L5.02393 9.50991L6.01911 9.60793C6.10982 8.68697 6.51705 7.82594 7.17142 7.17157L6.46432 6.46447ZM5.02393 9.50991L4.02874 9.4119C3.89268 10.7933 4.23983 12.1792 5.01103 13.3334L5.8425 12.7779L6.67397 12.2223C6.15984 11.4528 5.9284 10.5289 6.01911 9.60793L5.02393 9.50991ZM5.8425 12.7779L5.01103 13.3334C5.78224 14.4876 6.92978 15.3387 8.25814 15.7416L8.54843 14.7847L8.83871 13.8278C7.95314 13.5591 7.18811 12.9917 6.67397 12.2223L5.8425 12.7779ZM8.54843 14.7847L8.25814 15.7416C9.5865 16.1446 11.0135 16.0745 12.296 15.5433L11.9133 14.6194L11.5306 13.6955C10.6756 14.0497 9.72428 14.0964 8.83871 13.8278L8.54843 14.7847ZM11.9133 14.6194L12.296 15.5433C13.5784 15.0121 14.637 14.0526 15.2914 12.8284L14.4095 12.357L13.5275 11.8856C13.0913 12.7017 12.3856 13.3414 11.5306 13.6955L11.9133 14.6194ZM14.4095 12.357L15.2914 12.8284C15.9457 11.6042 16.1554 10.1909 15.8846 8.82946L14.9038 9.02455L13.923 9.21964C14.1035 10.1273 13.9638 11.0694 13.5275 11.8856L14.4095 12.357ZM14.9038 9.02455L15.8846 8.82946C15.6138 7.468 14.8793 6.24256 13.8062 5.36194L13.1718 6.13495L12.5374 6.90796C13.2528 7.49504 13.7425 8.312 13.923 9.21964L14.9038 9.02455ZM13.1718 6.13495L13.8062 5.36194C12.7332 4.48132 11.388 4 9.99985 4V5V6C10.9253 6 11.8221 6.32088 12.5374 6.90796L13.1718 6.13495ZM9.99985 5H10.9999V1.66667L9.99985 1.66667L8.99985 1.66667L8.99985 5H9.99985Z" fill="white" mask="url(#path-1-outside-1_329_2740)"/>
<path d="M9.99984 10L4.1665 4.16667" stroke="white" stroke-width="2" stroke-linecap="round"/>
</svg>
