<svg width="28" height="28" viewBox="0 0 28 28" fill="none" xmlns="http://www.w3.org/2000/svg">
<path d="M19.666 2.33301C22.4942 2.33301 23.9085 2.33327 24.7871 3.21191C25.6658 4.09056 25.666 5.5048 25.666 8.33301V19.667C25.666 22.4952 25.6658 23.9094 24.7871 24.7881C23.9085 25.6667 22.4942 25.667 19.666 25.667H8.33203C5.50382 25.667 4.08958 25.6667 3.21094 24.7881C2.33229 23.9094 2.33203 22.4952 2.33203 19.667V8.33301C2.33203 5.5048 2.33229 4.09056 3.21094 3.21191C4.08958 2.33327 5.50382 2.33301 8.33203 2.33301H19.666ZM20.3867 9.66797C19.9272 9.36181 19.3063 9.48586 19 9.94531L15.2891 15.5117L14.4971 13.9277C13.8103 12.5543 11.8957 12.4352 11.0439 13.7129L7.33301 19.2783C7.02692 19.7376 7.15137 20.3586 7.61035 20.665C8.06983 20.9714 8.69068 20.8471 8.99707 20.3877L12.708 14.8223L13.5 16.4062C14.1868 17.7795 16.1012 17.8984 16.9531 16.6211L20.6641 11.0547C20.9704 10.5952 20.8462 9.97432 20.3867 9.66797Z" fill="white"/>
</svg>
