<svg width="28" height="28" viewBox="0 0 28 28" fill="none" xmlns="http://www.w3.org/2000/svg">
<path d="M20.125 24.5C19.1625 24.5 18.2875 23.8875 17.9375 22.925C17.9375 22.8375 17.9375 22.75 17.85 22.75H10.0625C10.0625 22.8375 10.0625 22.925 9.975 22.925C9.7125 23.8875 8.8375 24.5 7.875 24.5C7.35 24.5 7 24.85 7 25.375C7 25.9 7.35 26.25 7.875 26.25H20.125C20.65 26.25 21 25.9 21 25.375C21 24.85 20.65 24.5 20.125 24.5Z" fill="white"/>
<path d="M9.625 11.375V9.625C8.1375 9.625 7 10.7625 7 12.25C7 13.7375 8.1375 14.875 9.625 14.875C11.1125 14.875 12.25 13.7375 12.25 12.25H10.5C9.975 12.25 9.625 11.9 9.625 11.375Z" fill="white"/>
<path d="M23.625 2.625H4.375C2.8875 2.625 1.75 3.7625 1.75 5.25V18.375C1.75 19.8625 2.8875 21 4.375 21H10.4125H17.5H23.625C25.1125 21 26.25 19.8625 26.25 18.375V5.25C26.25 3.7625 25.1125 2.625 23.625 2.625ZM14 12.25C14 14.7 12.075 16.625 9.625 16.625C7.175 16.625 5.25 14.7 5.25 12.25C5.25 9.8 7.175 7.875 9.625 7.875C9.625 7.35 9.975 7 10.5 7C12.95 7 14.875 8.925 14.875 11.375C14.875 11.9 14.525 12.25 14 12.25ZM21.875 14H20.125C19.6 14 19.25 13.65 19.25 13.125C19.25 12.6 19.6 12.25 20.125 12.25H21.875C22.4 12.25 22.75 12.6 22.75 13.125C22.75 13.65 22.4 14 21.875 14ZM21.875 11.375H17.5C16.975 11.375 16.625 11.025 16.625 10.5C16.625 9.975 16.975 9.625 17.5 9.625H21.875C22.4 9.625 22.75 9.975 22.75 10.5C22.75 11.025 22.4 11.375 21.875 11.375Z" fill="white"/>
</svg>
