<svg width="18" height="18" viewBox="0 0 18 18" fill="none" xmlns="http://www.w3.org/2000/svg">
<path d="M11.333 0.666992C14.1614 0.666992 15.5764 0.666242 16.4551 1.54492C17.3338 2.4236 17.333 3.83857 17.333 6.66699V11.333C17.333 14.1614 17.3338 15.5764 16.4551 16.4551C15.5764 17.3338 14.1614 17.333 11.333 17.333H6.66699C3.83856 17.333 2.4236 17.3338 1.54492 16.4551C0.666242 15.5764 0.666992 14.1614 0.666992 11.333V6.66699C0.666992 3.83856 0.666242 2.4236 1.54492 1.54492C2.4236 0.666242 3.83857 0.666992 6.66699 0.666992H11.333ZM13.7217 5.66797C13.2622 5.36165 12.6413 5.48591 12.335 5.94531L9.95703 9.51172L9.83203 9.26074C9.1453 7.88727 7.23078 7.76833 6.37891 9.0459L4.00195 12.6123L3.94922 12.7002C3.71228 13.1481 3.84856 13.7119 4.2793 13.999C4.70997 14.2857 5.28229 14.1945 5.60449 13.8037L5.66602 13.7217L8.04297 10.1553L8.16895 10.4062C8.85586 11.7792 10.7693 11.8983 11.6211 10.6211L13.999 7.05469C14.3052 6.59525 14.181 5.97434 13.7217 5.66797Z" fill="white"/>
</svg>
