<svg width="25" height="25" viewBox="0 0 25 25" fill="none" xmlns="http://www.w3.org/2000/svg">
<mask id="path-1-outside-1_496_5066" maskUnits="userSpaceOnUse" x="1.08398" y="1.08325" width="23" height="23" fill="black">
<rect fill="white" x="1.08398" y="1.08325" width="23" height="23"/>
<path d="M12.5007 2.08325C14.9106 2.08325 17.246 2.91887 19.1089 4.44773C20.9718 5.97658 22.247 8.10408 22.7172 10.4677C23.1873 12.8314 22.8234 15.2849 21.6873 17.4103C20.5513 19.5357 18.7135 21.2014 16.487 22.1237C14.2604 23.0459 11.783 23.1676 9.47687 22.468C7.17069 21.7685 5.17842 20.2909 3.83952 18.2871C2.50063 16.2833 1.89794 13.8773 2.13416 11.4789C2.37038 9.08056 3.43088 6.83831 5.13497 5.13422L8.08125 8.0805C7.0588 9.10296 6.42249 10.4483 6.28076 11.8873C6.13903 13.3263 6.50064 14.77 7.30398 15.9722C8.10732 17.1745 9.30268 18.0611 10.6864 18.4808C12.0701 18.9005 13.5565 18.8275 14.8924 18.2742C16.2283 17.7208 17.331 16.7214 18.0127 15.4461C18.6943 14.1709 18.9127 12.6988 18.6306 11.2806C18.3485 9.86242 17.5834 8.58592 16.4656 7.6686C15.3479 6.75129 13.9466 6.24992 12.5007 6.24992L12.5007 2.08325Z"/>
</mask>
<path d="M12.5007 2.08325C14.9106 2.08325 17.246 2.91887 19.1089 4.44773C20.9718 5.97658 22.247 8.10408 22.7172 10.4677C23.1873 12.8314 22.8234 15.2849 21.6873 17.4103C20.5513 19.5357 18.7135 21.2014 16.487 22.1237C14.2604 23.0459 11.783 23.1676 9.47687 22.468C7.17069 21.7685 5.17842 20.2909 3.83952 18.2871C2.50063 16.2833 1.89794 13.8773 2.13416 11.4789C2.37038 9.08056 3.43088 6.83831 5.13497 5.13422L8.08125 8.0805C7.0588 9.10296 6.42249 10.4483 6.28076 11.8873C6.13903 13.3263 6.50064 14.77 7.30398 15.9722C8.10732 17.1745 9.30268 18.0611 10.6864 18.4808C12.0701 18.9005 13.5565 18.8275 14.8924 18.2742C16.2283 17.7208 17.331 16.7214 18.0127 15.4461C18.6943 14.1709 18.9127 12.6988 18.6306 11.2806C18.3485 9.86242 17.5834 8.58592 16.4656 7.6686C15.3479 6.75129 13.9466 6.24992 12.5007 6.24992L12.5007 2.08325Z" fill="white"/>
<path d="M12.5007 2.08325L12.5007 1.08325L11.5007 1.08325L11.5007 2.08325L12.5007 2.08325ZM19.1089 4.44773L19.7433 3.67472L19.1089 4.44773ZM22.7172 10.4677L23.698 10.2726L22.7172 10.4677ZM21.6873 17.4103L20.8054 16.9389L21.6873 17.4103ZM16.487 22.1237L16.8696 23.0475L16.487 22.1237ZM9.47687 22.468L9.18658 23.425L9.47687 22.468ZM3.83952 18.2871L3.00805 18.8427L3.83952 18.2871ZM2.13416 11.4789L1.13898 11.3809L2.13416 11.4789ZM5.13497 5.13422L5.84208 4.42711L5.13497 3.72001L4.42787 4.42711L5.13497 5.13422ZM8.08125 8.0805L8.78836 8.78761L9.49547 8.0805L8.78836 7.37339L8.08125 8.0805ZM7.30398 15.9722L6.47251 16.5278L7.30398 15.9722ZM10.6864 18.4808L10.3961 19.4377L10.6864 18.4808ZM14.8924 18.2742L15.2751 19.198L14.8924 18.2742ZM18.0127 15.4461L18.8946 15.9175L18.0127 15.4461ZM18.6306 11.2806L17.6498 11.4757L18.6306 11.2806ZM16.4656 7.6686L17.1 6.89559L16.4656 7.6686ZM12.5007 6.24992L11.5007 6.24992L11.5007 7.24992L12.5007 7.24992L12.5007 6.24992ZM12.5007 2.08325L12.5007 3.08325C14.6793 3.08325 16.7905 3.83865 18.4745 5.22074L19.1089 4.44773L19.7433 3.67472C17.7016 1.99909 15.142 1.08325 12.5007 1.08325L12.5007 2.08325ZM19.1089 4.44773L18.4745 5.22074C20.1586 6.60282 21.3114 8.52608 21.7364 10.6628L22.7172 10.4677L23.698 10.2726C23.1827 7.68208 21.7851 5.35034 19.7433 3.67472L19.1089 4.44773ZM22.7172 10.4677L21.7364 10.6628C22.1614 12.7996 21.8324 15.0176 20.8054 16.9389L21.6873 17.4103L22.5693 17.8817C23.8144 15.5523 24.2133 12.8632 23.698 10.2726L22.7172 10.4677ZM21.6873 17.4103L20.8054 16.9389C19.7784 18.8603 18.117 20.3661 16.1043 21.1998L16.487 22.1237L16.8696 23.0475C19.3099 22.0368 21.3242 20.2111 22.5693 17.8817L21.6873 17.4103ZM16.487 22.1237L16.1043 21.1998C14.0915 22.0335 11.8519 22.1435 9.76715 21.5111L9.47687 22.468L9.18658 23.425C11.7142 24.1917 14.4294 24.0583 16.8696 23.0475L16.487 22.1237ZM9.47687 22.468L9.76715 21.5111C7.68237 20.8787 5.88136 19.543 4.67099 17.7315L3.83952 18.2871L3.00805 18.8427C4.47548 21.0388 6.65901 22.6583 9.18658 23.425L9.47687 22.468ZM3.83952 18.2871L4.67099 17.7315C3.46063 15.9201 2.9158 13.745 3.12934 11.5769L2.13416 11.4789L1.13898 11.3809C0.880081 14.0095 1.54062 16.6465 3.00805 18.8427L3.83952 18.2871ZM2.13416 11.4789L3.12934 11.5769C3.34289 9.40882 4.30158 7.38183 5.84208 5.84133L5.13497 5.13422L4.42787 4.42711C2.56018 6.2948 1.39787 8.7523 1.13898 11.3809L2.13416 11.4789ZM5.13497 5.13422L4.42787 5.84133L7.37414 8.78761L8.08125 8.0805L8.78836 7.37339L5.84208 4.42711L5.13497 5.13422ZM8.08125 8.0805L7.37414 7.37339C6.1881 8.55944 5.44999 10.12 5.28558 11.7893L6.28076 11.8873L7.27595 11.9853C7.395 10.7766 7.92949 9.64647 8.78836 8.78761L8.08125 8.0805ZM6.28076 11.8873L5.28558 11.7893C5.12117 13.4585 5.54064 15.1332 6.47251 16.5278L7.30398 15.9722L8.13545 15.4167C7.46065 14.4067 7.15689 13.1941 7.27595 11.9853L6.28076 11.8873ZM7.30398 15.9722L6.47251 16.5278C7.40438 17.9224 8.791 18.9508 10.3961 19.4377L10.6864 18.4808L10.9767 17.5239C9.81436 17.1713 8.81025 16.4266 8.13545 15.4167L7.30398 15.9722ZM10.6864 18.4808L10.3961 19.4377C12.0012 19.9246 13.7255 19.8399 15.2751 19.198L14.8924 18.2742L14.5098 17.3503C13.3876 17.8151 12.139 17.8764 10.9767 17.5239L10.6864 18.4808ZM14.8924 18.2742L15.2751 19.198C16.8248 18.5562 18.1039 17.3968 18.8946 15.9175L18.0127 15.4461L17.1308 14.9748C16.5582 16.0459 15.6319 16.8855 14.5098 17.3503L14.8924 18.2742ZM18.0127 15.4461L18.8946 15.9175C19.6853 14.4383 19.9386 12.7306 19.6114 11.0855L18.6306 11.2806L17.6498 11.4757C17.8868 12.667 17.7033 13.9036 17.1308 14.9748L18.0127 15.4461ZM18.6306 11.2806L19.6114 11.0855C19.2841 9.44042 18.3966 7.95968 17.1 6.89559L16.4656 7.6686L15.8312 8.44161C16.7701 9.21216 17.4128 10.2844 17.6498 11.4757L18.6306 11.2806ZM16.4656 7.6686L17.1 6.89559C15.8034 5.83151 14.178 5.24992 12.5007 5.24992L12.5007 6.24992L12.5007 7.24992C13.7153 7.24992 14.8923 7.67107 15.8312 8.44161L16.4656 7.6686ZM12.5007 6.24992L13.5007 6.24992L13.5007 2.08325L12.5007 2.08325L11.5007 2.08325L11.5007 6.24992L12.5007 6.24992Z" fill="white" mask="url(#path-1-outside-1_496_5066)"/>
<path d="M12.5007 12.4999L5.20898 5.20825" stroke="white" stroke-width="2" stroke-linecap="round"/>
</svg>
