<svg width="27" height="27" viewBox="0 0 27 27" fill="none" xmlns="http://www.w3.org/2000/svg">
<circle cx="13.5" cy="13.5" r="13.5" fill="#FFE600"/>
<g clip-path="url(#clip0_505_3194)">
<path d="M17.63 20.3183L16.1553 8.88921H17.774V9.45004H17.2688V10.483H17.774V11.0471H17.2688V12.0801H17.774V12.7171H18.7381V12.0801H19.2434V11.0471H18.7381V10.483H19.2434V9.45011H18.7381V7.85631H16.022L15.9449 7.25854H16.6394V4.5H10.362V7.25854H11.0565L10.9794 7.85631H8.26018V9.45008H7.75486V10.483H8.26018V11.0472H7.75486V12.0801H8.26018V12.7171H9.22426V12.0801H9.72955V11.0472H9.22426V10.483H9.72955V9.45011H9.22426V8.88925H10.8461L9.37148 20.3183H7.00781V21.3512H9.90637L9.92781 21.375L9.95082 21.3512H17.005L17.028 21.375L17.0495 21.3512H19.9905V20.3183H17.63V20.3183ZM15.3818 10.4366L14.3332 9.66757L15.2005 9.0315L15.3818 10.4366ZM12.0297 7.25854H14.9717L15.0529 7.88799L13.4798 9.04168L11.9449 7.916L12.0297 7.25854ZM11.7974 9.05955L12.6264 9.66757L11.624 10.4027L11.7974 9.05955ZM11.4457 11.7853L13.4798 10.2934L15.5602 11.8192L15.7468 13.2658H11.2546L11.4457 11.7853ZM15.3811 14.2987L13.4779 16.2672L11.5748 14.2987H15.3811ZM11.0113 15.1516L12.7839 16.9851L10.4653 19.3833L11.0113 15.1516ZM10.9494 20.3183L13.478 17.7029L16.0064 20.3183H10.9494ZM14.172 16.985L15.9848 15.11L16.5431 19.4377L14.172 16.985Z" fill="black"/>
</g>
<defs>
<clipPath id="clip0_505_3194">
<rect width="15.75" height="16.875" fill="white" transform="translate(5.625 4.5)"/>
</clipPath>
</defs>
</svg>
