<svg width="445" height="74" viewBox="0 0 445 74" fill="none" xmlns="http://www.w3.org/2000/svg">
<path d="M426.731 0L394.615 42H351.615L383.731 0H426.731Z" fill="#145C72"/>
<path d="M377.615 0L320.795 74H299.91L356.731 0H377.615Z" fill="#13A2BA"/>
<path d="M444.628 0L412.013 42H400.115L432.731 0H444.628Z" fill="#FFF11E"/>
<path d="M350.526 0L305.911 58H-125L-80.3846 0H350.526Z" fill="#13A2BA"/>
<path d="M161.378 41C161.138 41 160.965 40.88 160.858 40.64L152.378 15.28C152.298 14.96 152.418 14.8 152.738 14.8H156.178C156.445 14.8 156.618 14.92 156.698 15.16L161.898 31.64C162.192 32.5467 162.472 33.48 162.738 34.44C163.032 35.3733 163.312 36.3067 163.578 37.24H163.658C163.925 36.3333 164.205 35.4133 164.498 34.48C164.792 33.5467 165.085 32.6267 165.378 31.72L170.738 15.16C170.818 14.92 170.992 14.8 171.258 14.8H174.658C174.978 14.8 175.098 14.96 175.018 15.28L166.378 40.64C166.298 40.88 166.125 41 165.858 41H161.378ZM179.208 41C178.915 41 178.768 40.8533 178.768 40.56V15.24C178.768 14.9467 178.915 14.8 179.208 14.8H182.368C182.662 14.8 182.808 14.9467 182.808 15.24V40.56C182.808 40.8533 182.662 41 182.368 41H179.208ZM189.638 41C189.345 41 189.198 40.8533 189.198 40.56V15.24C189.198 14.9467 189.345 14.8 189.638 14.8H197.118C201.225 14.8 204.291 15.76 206.318 17.68C208.345 19.5733 209.358 22.4533 209.358 26.32V28.48C209.358 32.6933 208.345 35.84 206.318 37.92C204.318 39.9733 201.251 41 197.118 41H189.638ZM193.238 37.56H196.838C199.745 37.56 201.878 36.84 203.238 35.4C204.625 33.9333 205.318 31.68 205.318 28.64V26.16C205.318 23.4667 204.625 21.48 203.238 20.2C201.878 18.8933 199.745 18.24 196.838 18.24H193.238V37.56ZM215.419 41C215.126 41 214.979 40.8533 214.979 40.56V15.24C214.979 14.9467 215.126 14.8 215.419 14.8H230.139C230.406 14.8 230.539 14.9467 230.539 15.24V17.96C230.539 18.2533 230.406 18.4 230.139 18.4H219.019V26H229.179C229.446 26 229.579 26.1333 229.579 26.4V29C229.579 29.2933 229.446 29.44 229.179 29.44H219.019V37.4H230.139C230.406 37.4 230.539 37.5467 230.539 37.84V40.56C230.539 40.8533 230.406 41 230.139 41H215.419ZM245.754 41.48C242.341 41.48 239.781 40.6533 238.074 39C236.394 37.32 235.554 34.9467 235.554 31.88V23.92C235.554 20.8267 236.394 18.4533 238.074 16.8C239.781 15.1467 242.341 14.32 245.754 14.32C249.167 14.32 251.714 15.1467 253.394 16.8C255.101 18.4533 255.954 20.8267 255.954 23.92V31.88C255.954 34.9467 255.101 37.32 253.394 39C251.714 40.6533 249.167 41.48 245.754 41.48ZM245.754 37.92C247.781 37.92 249.314 37.4 250.354 36.36C251.394 35.2933 251.914 33.76 251.914 31.76V24.04C251.914 22.0133 251.394 20.48 250.354 19.44C249.314 18.4 247.781 17.88 245.754 17.88C243.754 17.88 242.221 18.4 241.154 19.44C240.114 20.48 239.594 22.0133 239.594 24.04V31.76C239.594 33.76 240.114 35.2933 241.154 36.36C242.221 37.4 243.754 37.92 245.754 37.92ZM269.423 41.48C266.143 41.48 263.743 40.8 262.223 39.44C260.703 38.0533 260.036 36.2 260.223 33.88C260.249 33.4267 260.423 33.2 260.743 33.2H263.823C264.143 33.2 264.303 33.4 264.303 33.8C264.303 35.2667 264.743 36.3333 265.623 37C266.503 37.6667 267.863 38 269.703 38C271.463 38 272.783 37.6933 273.663 37.08C274.569 36.4667 275.023 35.5333 275.023 34.28C275.023 33.6667 274.916 33.1467 274.703 32.72C274.516 32.2667 274.169 31.8667 273.663 31.52C273.156 31.1733 272.489 30.8267 271.663 30.48L265.783 28.04C264.529 27.5067 263.516 26.92 262.743 26.28C261.996 25.64 261.449 24.9067 261.103 24.08C260.783 23.2533 260.623 22.3067 260.623 21.24C260.649 19 261.396 17.2933 262.863 16.12C264.356 14.9467 266.529 14.36 269.383 14.36C271.356 14.36 273.049 14.64 274.463 15.2C275.903 15.76 276.969 16.5867 277.663 17.68C278.383 18.7733 278.676 20.12 278.543 21.72C278.489 22.2 278.329 22.44 278.063 22.44H274.943C274.809 22.44 274.703 22.3867 274.623 22.28C274.569 22.1733 274.556 21.9867 274.583 21.72C274.663 20.4933 274.236 19.5333 273.303 18.84C272.369 18.1467 271.036 17.8 269.303 17.8C267.783 17.8 266.636 18.08 265.863 18.64C265.089 19.1733 264.689 19.9867 264.663 21.08C264.663 21.6667 264.769 22.1733 264.983 22.6C265.196 23.0267 265.556 23.4267 266.063 23.8C266.569 24.1733 267.263 24.5467 268.143 24.92L273.943 27.36C275.196 27.8667 276.196 28.44 276.943 29.08C277.716 29.72 278.263 30.4533 278.583 31.28C278.903 32.1067 279.063 33.1067 279.063 34.28C279.063 36.5467 278.289 38.32 276.743 39.6C275.196 40.8533 272.756 41.48 269.423 41.48Z" fill="#FFF11E"/>
</svg>
