<svg width="24" height="24" viewBox="0 0 24 24" fill="none" xmlns="http://www.w3.org/2000/svg">
<circle cx="12" cy="12" r="12" fill="#273B4A"/>
<g clip-path="url(#clip0_571_2781)">
<path d="M15.6724 18.0607L14.3616 7.90152H15.8005V8.40004H15.3513V9.3182H15.8005V9.81968H15.3513V10.7378H15.8005V11.3041H16.6574V10.7378H17.1066V9.81968H16.6574V9.31826H17.1066V8.4001H16.6574V6.98339H14.2431L14.1745 6.45203H14.7919V4H9.21198V6.45203H9.82932L9.76077 6.98339H7.34369V8.40007H6.89451V9.31823H7.34369V9.81971H6.89451V10.7379H7.34369V11.3041H8.20064V10.7379H8.64979V9.81971H8.20064V9.31826H8.64979V8.4001H8.20064V7.90155H9.64231L8.33151 18.0607H6.23047V18.9789H8.80696L8.82602 19L8.84647 18.9789H15.1169L15.1373 19L15.1564 18.9789H17.7707V18.0607H15.6724V18.0607ZM13.674 9.27698L12.7419 8.5934L13.5128 8.028L13.674 9.27698ZM10.6944 6.45203H13.3095L13.3817 7.01154L11.9833 8.03705L10.619 7.03645L10.6944 6.45203ZM10.4878 8.05293L11.2248 8.5934L10.3338 9.24684L10.4878 8.05293ZM10.1752 10.4758L11.9834 9.14972L13.8325 10.5059L13.9985 11.7918H10.0054L10.1752 10.4758ZM13.6734 12.71L11.9817 14.4597L10.29 12.71H13.6734ZM9.78912 13.4681L11.3648 15.0979L9.30377 17.2296L9.78912 13.4681ZM9.73413 18.0607L11.9817 15.7359L14.2293 18.0607H9.73413ZM12.5986 15.0978L14.21 13.4311L14.7063 17.2779L12.5986 15.0978Z" fill="#D2F8FF"/>
</g>
<defs>
<clipPath id="clip0_571_2781">
<rect width="14" height="15" fill="white" transform="translate(5 4)"/>
</clipPath>
</defs>
</svg>
