<svg width="26" height="24" viewBox="0 0 26 24" fill="none" xmlns="http://www.w3.org/2000/svg">
<g clip-path="url(#clip0_561_3466)">
<path d="M9.07398 19.4663H4.38505C3.48923 19.4663 2.74762 18.7957 2.74762 17.9427V4.10232C2.74762 3.24931 3.48923 2.58401 4.38505 2.58401H15.7334C16.6292 2.58401 17.3605 3.24931 17.3605 4.10232V15.7L19.4566 13.3272V2.62034C19.4566 1.49864 18.525 0.588867 17.3486 0.588867H2.68641C1.55531 0.588867 0.652344 1.46231 0.652344 2.5386V19.4792C0.652344 20.6009 1.59426 21.5137 2.77385 21.5137H11.0071L10.0342 20.7091C9.60813 20.3571 9.2878 19.9265 9.07398 19.4663Z" fill="#273B4A"/>
<path d="M14.8608 5.14233H5.44875C4.87009 5.14233 4.4043 5.58965 4.4043 6.13991C4.4043 6.6894 4.87088 7.13672 5.44875 7.13672H14.86C15.4387 7.13672 15.9029 6.6894 15.9029 6.13991C15.9045 5.59041 15.4387 5.14233 14.8608 5.14233Z" fill="#273B4A"/>
<path d="M14.8608 8.46729H5.44875C4.87009 8.46729 4.4043 8.91385 4.4043 9.46486C4.4043 10.0128 4.87088 10.4624 5.44875 10.4624H14.86C15.4387 10.4624 15.9029 10.0128 15.9029 9.46486C15.9045 8.91385 15.4387 8.46729 14.8608 8.46729Z" fill="#273B4A"/>
<path d="M14.8608 11.793H5.44875C4.87009 11.793 4.4043 12.2153 4.4043 12.7663C4.4043 13.3151 4.87088 13.7366 5.44875 13.7366H14.86C15.4387 13.7366 15.9029 13.3128 15.9029 12.7663C15.9045 12.2153 15.4387 11.793 14.8608 11.793Z" fill="#273B4A"/>
<path d="M4.4043 15.9369C4.4043 16.4872 4.87088 16.908 5.44875 16.908H8.96048C9.10754 16.55 9.33328 16.1344 9.64169 15.7886C9.96599 15.4305 10.3483 15.1679 10.764 14.962H5.44955C4.87088 14.9643 4.4043 15.3882 4.4043 15.9369Z" fill="#273B4A"/>
<path d="M14.8615 14.9644H14.0762C14.3337 15.068 14.5793 15.2414 14.8043 15.4268L15.8471 16.2768C15.8869 16.1746 15.9076 16.0649 15.9076 15.946C15.9052 15.3996 15.4394 14.9644 14.8615 14.9644Z" fill="#273B4A"/>
<path d="M25.213 12.2985C24.446 11.6718 23.2894 11.7612 22.6329 12.4953L16.6205 19.2066L13.6151 16.7483C12.8457 16.1231 11.6907 16.2056 11.0334 16.936C10.3744 17.6679 10.4634 18.7661 11.2305 19.3928L15.6285 22.9895C15.9639 23.2605 16.3844 23.4111 16.8208 23.4111C16.8701 23.4111 16.9154 23.4096 16.9655 23.405C17.4479 23.3695 17.9002 23.1507 18.215 22.7988L25.4213 14.7554C26.0747 14.0235 25.9848 12.9252 25.213 12.2985Z" fill="#0CA2BA"/>
</g>
<defs>
<clipPath id="clip0_561_3466">
<rect width="25.2045" height="24" fill="white" transform="translate(0.652344)"/>
</clipPath>
</defs>
</svg>
