<svg width="30" height="28" viewBox="0 0 30 28" fill="none" xmlns="http://www.w3.org/2000/svg">
<g clip-path="url(#clip0_561_3476)">
<path d="M1.88873 14.0958C1.87749 12.6176 3.53899 11.778 4.80344 12.455L4.9422 12.5365L8.22315 14.6415C9.96795 15.761 8.8823 18.3114 6.87683 18.042L6.70762 18.0129L6.5747 17.9852C7.71821 20.1119 9.76612 21.7857 12.3777 22.4521C16.4832 23.4995 20.6891 21.7264 22.7166 18.3762C23.2235 17.5388 24.3471 17.2512 25.2266 17.7337C26.106 18.2163 26.408 19.2863 25.9013 20.1238C23.0634 24.8127 17.1799 27.3008 11.4264 25.8327C6.2747 24.5184 2.69912 20.407 2.00998 15.6806C1.93392 15.159 1.89295 14.6297 1.88873 14.0958ZM14.756 7.00006C15.4327 7.00006 15.9812 7.5224 15.9812 8.16673V9.33339H18.4316C19.1083 9.33339 19.6569 9.85573 19.6569 10.5001C19.6569 11.1444 19.1083 11.6667 18.4316 11.6667H15.9812V12.8334H17.2064C18.8981 12.8334 20.2695 14.1392 20.2695 15.7501C20.2695 17.3609 18.8981 18.6667 17.2064 18.6667H15.9812V19.8334C15.9812 20.4777 15.4327 21.0001 14.756 21.0001C14.0793 21.0001 13.5308 20.4777 13.5308 19.8334V18.6667H11.0803C10.4037 18.6667 9.8551 18.1444 9.8551 17.5001C9.8551 16.8557 10.4037 16.3334 11.0803 16.3334H13.5308V15.1667H12.3055C10.6139 15.1667 9.24249 13.8609 9.24249 12.2501C9.24249 10.6392 10.6139 9.33339 12.3055 9.33339H13.5308V8.16673C13.5308 7.52239 14.0793 7.00006 14.756 7.00006ZM17.2064 15.1667H15.9812V16.3334H17.2064C17.5447 16.3334 17.819 16.0722 17.819 15.7501C17.819 15.4279 17.5447 15.1667 17.2064 15.1667ZM3.61138 7.87619C6.4493 3.18745 12.3326 0.699639 18.086 2.1676C23.2377 3.48201 26.8134 7.59333 27.5024 12.3198C27.5785 12.8413 27.6194 13.3706 27.6237 13.9045C27.6349 15.3828 25.9734 16.2224 24.709 15.5454L24.5702 15.4639L21.2891 13.3587C19.5444 12.2394 20.6298 9.68908 22.6352 9.95829L22.8044 9.98734L22.9376 10.0152C21.7941 7.88844 19.7463 6.21466 17.1347 5.54833C13.0294 4.50088 8.82362 6.27388 6.79599 9.62388C6.28915 10.4613 5.16538 10.7489 4.28598 10.2662C3.40657 9.78363 3.10454 8.71357 3.61138 7.87619ZM13.5308 11.6667H12.3055C11.9672 11.6667 11.6929 11.9279 11.6929 12.2501C11.6929 12.5722 11.9672 12.8334 12.3055 12.8334H13.5308V11.6667Z" fill="#273B4A"/>
<path d="M14.7557 7C15.4324 7 15.9809 7.52234 15.9809 8.16667V9.33333H18.4313C19.108 9.33333 19.6565 9.85567 19.6565 10.5C19.6565 11.1443 19.108 11.6667 18.4313 11.6667H15.9809V12.8333H17.2061C18.8978 12.8333 20.2692 14.1392 20.2692 15.75C20.2692 17.3608 18.8978 18.6667 17.2061 18.6667H15.9809V19.8333C15.9809 20.4777 15.4324 21 14.7557 21C14.079 21 13.5305 20.4777 13.5305 19.8333V18.6667H11.08C10.4034 18.6667 9.8548 18.1444 9.8548 17.5C9.8548 16.8556 10.4034 16.3333 11.08 16.3333H13.5305V15.1667H12.3052C10.6136 15.1667 9.24219 13.8608 9.24219 12.25C9.24219 10.6392 10.6136 9.33333 12.3052 9.33333H13.5305V8.16667C13.5305 7.52233 14.079 7 14.7557 7ZM17.2061 15.1667H15.9809V16.3333H17.2061C17.5444 16.3333 17.8187 16.0721 17.8187 15.75C17.8187 15.4279 17.5444 15.1667 17.2061 15.1667ZM13.5305 11.6667H12.3052C11.9669 11.6667 11.6926 11.9279 11.6926 12.25C11.6926 12.5721 11.9669 12.8333 12.3052 12.8333H13.5305V11.6667Z" fill="#0CA2BA"/>
</g>
<defs>
<clipPath id="clip0_561_3476">
<rect width="29.4052" height="28" fill="white" transform="translate(0.0527344)"/>
</clipPath>
</defs>
</svg>
