<svg width="28" height="26" viewBox="0 0 28 26" fill="none" xmlns="http://www.w3.org/2000/svg">
<g clip-path="url(#clip0_561_3492)">
<path d="M4.20178 15.3497H1.32262C0.980422 15.3497 0.703125 15.6138 0.703125 15.9396V17.0801V22.0857V23.2261C0.703125 23.552 0.980422 23.816 1.32262 23.816H4.20178C4.54398 23.816 4.82128 23.552 4.82128 23.2261V22.0857V17.0801V15.9396C4.82128 15.6138 4.54398 15.3497 4.20178 15.3497Z" fill="#273B4A"/>
<path d="M10.0182 12.0745H7.13902C6.79683 12.0745 6.51953 12.3385 6.51953 12.6644V17.0801V18.8104V23.2261C6.51953 23.552 6.79683 23.816 7.13902 23.816H10.0182C10.3604 23.816 10.6377 23.552 10.6377 23.2261V18.8104V17.0801V12.6644C10.6377 12.3385 10.3604 12.0745 10.0182 12.0745Z" fill="#273B4A"/>
<path d="M16.4564 13.8216V8.94523H18.4447C18.8105 8.94523 19.0347 8.56321 18.84 8.26545L14.7926 2.07444C14.6097 1.79354 14.179 1.79354 13.9961 2.07444L9.94878 8.26545C9.75408 8.56321 9.97828 8.94523 10.3441 8.94523H12.3324V23.2261C12.3324 23.552 12.6096 23.816 12.9518 23.816H15.831C16.1732 23.816 16.4505 23.552 16.4505 23.2317C15.2941 21.9733 14.592 20.3273 14.592 18.5239C14.592 16.7261 15.2941 15.0801 16.4564 13.8216Z" fill="#273B4A"/>
<path d="M22.1147 12.9115C18.858 12.9115 16.2207 15.4227 16.2207 18.5239C16.2207 21.625 18.858 24.1362 22.1147 24.1362C25.3715 24.1362 28.0088 21.625 28.0088 18.5239C28.0088 15.4227 25.3715 12.9115 22.1147 12.9115ZM23.808 20.743C23.5484 21.0407 23.218 21.243 22.8227 21.3441C22.6516 21.389 22.5749 21.4733 22.5867 21.6418C22.5926 21.8048 22.5867 21.9733 22.5867 22.1418C22.5867 22.2879 22.51 22.3666 22.3566 22.3722C22.1678 22.3778 21.979 22.3778 21.7961 22.3722C21.6309 22.3666 21.5542 22.2823 21.5542 22.1306C21.5542 22.007 21.5542 21.889 21.5483 21.7654C21.5483 21.4958 21.5365 21.4845 21.2651 21.4452C20.917 21.3946 20.5808 21.316 20.2622 21.1699C20.0144 21.0576 19.9908 20.9958 20.0616 20.7486C20.1147 20.5632 20.1678 20.3778 20.2268 20.198C20.2976 19.9845 20.3566 19.9621 20.5631 20.0632C20.9111 20.2373 21.2828 20.3328 21.6722 20.3778C21.9259 20.4059 22.1678 20.3834 22.3979 20.2879C22.8286 20.1081 22.8994 19.6306 22.5336 19.3441C22.4097 19.2486 22.2681 19.1755 22.1206 19.1137C21.743 18.9564 21.3418 18.8328 20.9878 18.6306C20.4038 18.2991 20.038 17.8441 20.0793 17.1699C20.1265 16.4059 20.5807 15.9284 21.3182 15.6755C21.6191 15.5688 21.625 15.5744 21.625 15.2711C21.625 15.1699 21.625 15.0688 21.625 14.9677C21.6309 14.7373 21.6722 14.7036 21.9082 14.6924C21.979 14.6924 22.0557 14.6924 22.1265 14.6924C22.6339 14.6924 22.6339 14.6924 22.6339 15.1755C22.6339 15.5182 22.6339 15.5182 22.9938 15.5688C23.2652 15.6081 23.5307 15.6868 23.7785 15.7935C23.9201 15.8497 23.9732 15.9452 23.926 16.0857C23.8611 16.2935 23.8021 16.5014 23.7313 16.7093C23.6664 16.9059 23.6015 16.934 23.4009 16.8441C23.0056 16.6643 22.5926 16.5857 22.156 16.6081C22.0439 16.6137 21.9318 16.6306 21.8256 16.6755C21.448 16.8328 21.389 17.2317 21.7076 17.4733C21.8728 17.5969 22.0557 17.6868 22.2504 17.7654C22.5867 17.8946 22.923 18.0239 23.2357 18.1924C24.2446 18.7093 24.516 19.9171 23.808 20.743Z" fill="#179FB7"/>
</g>
<defs>
<clipPath id="clip0_561_3492">
<rect width="27.3049" height="26" fill="white" transform="translate(0.703125)"/>
</clipPath>
</defs>
</svg>
