<svg width="28" height="26" viewBox="0 0 28 26" fill="none" xmlns="http://www.w3.org/2000/svg">
<path d="M17.8668 10.2143C18.8093 10.2143 19.5734 10.9419 19.5734 11.8393V18.1062C19.5734 20.9274 17.1716 23.2143 14.2089 23.2143C11.2462 23.2143 8.84442 20.9274 8.84442 18.1062V11.8393C8.84442 10.9419 9.60847 10.2143 10.551 10.2143H17.8668ZM4.21046 10.2143L8.48378 10.2125C8.14257 10.6052 7.9224 11.0967 7.87768 11.6353L7.86924 11.8393V18.1062C7.86924 19.1587 8.15208 20.1482 8.64932 21.0097C8.11199 21.233 7.51792 21.3572 6.8934 21.3572C4.46915 21.3572 2.50391 19.4859 2.50391 17.1775V11.8393C2.50391 10.9419 3.26796 10.2143 4.21046 10.2143ZM19.934 10.2125L24.2015 10.2143C25.144 10.2143 25.9081 10.9419 25.9081 11.8393V17.1786C25.9081 19.4864 23.9434 21.3572 21.5198 21.3572C20.8966 21.3572 20.3037 21.2335 19.7668 21.0105L19.8211 20.9165C20.2392 20.1611 20.494 19.311 20.5407 18.4088L20.5485 18.1062V11.8393C20.5485 11.2212 20.3179 10.6543 19.934 10.2125ZM14.206 2.78577C16.091 2.78577 17.6191 4.24084 17.6191 6.03577C17.6191 7.83069 16.091 9.28577 14.206 9.28577C12.321 9.28577 10.7929 7.83069 10.7929 6.03577C10.7929 4.24084 12.321 2.78577 14.206 2.78577ZM22.0103 3.71434C23.626 3.71434 24.9358 4.96154 24.9358 6.50005C24.9358 8.03856 23.626 9.28577 22.0103 9.28577C20.3946 9.28577 19.0848 8.03856 19.0848 6.50005C19.0848 4.96154 20.3946 3.71434 22.0103 3.71434ZM6.40169 3.71434C8.01741 3.71434 9.32721 4.96154 9.32721 6.50005C9.32721 8.03856 8.01741 9.28577 6.40169 9.28577C4.78597 9.28577 3.47617 8.03856 3.47617 6.50005C3.47617 4.96154 4.78597 3.71434 6.40169 3.71434Z" fill="#273B4A"/>
<path d="M14.2064 2.78577C16.0914 2.78577 17.6195 4.24084 17.6195 6.03577C17.6195 7.83069 16.0914 9.28577 14.2064 9.28577C12.3214 9.28577 10.7933 7.83069 10.7933 6.03577C10.7933 4.24084 12.3214 2.78577 14.2064 2.78577ZM22.0107 3.71434C23.6264 3.71434 24.9362 4.96154 24.9362 6.50005C24.9362 8.03856 23.6264 9.28577 22.0107 9.28577C20.395 9.28577 19.0852 8.03856 19.0852 6.50005C19.0852 4.96154 20.395 3.71434 22.0107 3.71434ZM6.40208 3.71434C8.01781 3.71434 9.32761 4.96154 9.32761 6.50005C9.32761 8.03856 8.01781 9.28577 6.40208 9.28577C4.78636 9.28577 3.47656 8.03856 3.47656 6.50005C3.47656 4.96154 4.78636 3.71434 6.40208 3.71434Z" fill="#179FB7"/>
</svg>
