<svg width="23" height="21" viewBox="0 0 23 21" fill="none" xmlns="http://www.w3.org/2000/svg">
<g clip-path="url(#clip0_561_3550)">
<path d="M19.3482 6.3V5.25H17.1428V2.1H3.91047V16.8H9.42395V21H13.0077H12.732C12.1471 21 11.5862 20.7787 11.1726 20.3849C10.759 19.9911 10.5267 19.457 10.5267 18.9V8.4C10.5267 7.84305 10.759 7.3089 11.1726 6.91508C11.5862 6.52125 12.1471 6.3 12.732 6.3H19.3482ZM13.0077 21H3.91047C3.32556 21 2.76461 20.7787 2.35102 20.3849C1.93743 19.9911 1.70508 19.457 1.70508 18.9V2.1C1.70508 0.945 2.6975 0 3.91047 0H17.1428C17.7277 0 18.2887 0.221249 18.7023 0.615076C19.1159 1.0089 19.3482 1.54305 19.3482 2.1V6.3C19.9331 6.3 20.4941 6.52125 20.9077 6.91508C21.3213 7.3089 21.5536 7.84305 21.5536 8.4V18.9C21.5536 19.457 21.3213 19.9911 20.9077 20.3849C20.4941 20.7787 19.9331 21 19.3482 21H13.0077ZM12.732 8.4V16.8H19.3482V8.4H12.732ZM16.0401 19.95C16.3326 19.95 16.6131 19.8394 16.8199 19.6425C17.0267 19.4455 17.1428 19.1785 17.1428 18.9C17.1428 18.6215 17.0267 18.3544 16.8199 18.1575C16.6131 17.9606 16.3326 17.85 16.0401 17.85C15.7477 17.85 15.4672 17.9606 15.2604 18.1575C15.0536 18.3544 14.9374 18.6215 14.9374 18.9C14.9374 19.1785 15.0536 19.4455 15.2604 19.6425C15.4672 19.8394 15.7477 19.95 16.0401 19.95Z" fill="#273B4A"/>
</g>
<defs>
<clipPath id="clip0_561_3550">
<rect width="22.0539" height="21" fill="white" transform="translate(0.601562)"/>
</clipPath>
</defs>
</svg>
