<svg width="25" height="23" viewBox="0 0 25 23" fill="none" xmlns="http://www.w3.org/2000/svg">
<g clip-path="url(#clip0_561_3959)">
<path d="M11.8755 11.1141C10.5547 11.1141 9.46094 12.1556 9.46094 13.4133V22.044C9.46188 22.297 9.56785 22.5394 9.75574 22.7183C9.94362 22.8972 10.1982 22.9981 10.4639 22.999H14.4906C14.7563 22.9981 15.0109 22.8972 15.1988 22.7183C15.3867 22.5394 15.4926 22.297 15.4936 22.044V13.4133C15.4936 12.1556 14.3998 11.1141 13.079 11.1141H11.8755Z" fill="#E78700"/>
<path d="M18.9185 8.24194C17.5977 8.24194 16.5039 9.28343 16.5039 10.5411V22.0439C16.5048 22.297 16.6108 22.5394 16.7987 22.7183C16.9866 22.8972 17.2412 22.9981 17.5069 22.999H21.5336C21.6658 22.9994 21.7968 22.9751 21.9191 22.9274C22.0415 22.8797 22.1527 22.8094 22.2466 22.7208C22.3404 22.6321 22.415 22.5267 22.466 22.4105C22.517 22.2944 22.5435 22.1698 22.544 22.0439V10.5411C22.544 9.28343 21.4428 8.24194 20.122 8.24194H18.9185Z" fill="#FF0000"/>
<path d="M1.4069 21.0819C1.27407 21.0814 1.14244 21.106 1.01961 21.1541C0.896787 21.2023 0.785191 21.2732 0.691261 21.3626C0.597331 21.452 0.522924 21.5583 0.472333 21.6753C0.421742 21.7922 0.395966 21.9176 0.396492 22.044C0.396948 22.1699 0.423448 22.2945 0.474479 22.4106C0.525509 22.5268 0.600071 22.6322 0.693903 22.7209C0.787735 22.8096 0.898999 22.8798 1.02134 22.9275C1.14368 22.9753 1.27469 22.9996 1.4069 22.9991H23.5464C23.6786 22.9996 23.8096 22.9752 23.9319 22.9275C24.0542 22.8798 24.1655 22.8096 24.2593 22.7209C24.3532 22.6322 24.4277 22.5268 24.4787 22.4106C24.5298 22.2945 24.5563 22.1699 24.5567 22.044C24.5573 21.9176 24.5315 21.7922 24.4809 21.6753C24.4303 21.5583 24.3559 21.4521 24.262 21.3626C24.168 21.2732 24.0565 21.2023 23.9336 21.1541C23.8108 21.106 23.6792 21.0814 23.5464 21.0819H1.4069Z" fill="#273B4A"/>
<path d="M4.82467 14.3755C3.50391 14.3755 2.41016 15.417 2.41016 16.6747V22.0441C2.41062 22.1699 2.43713 22.2945 2.48817 22.4106C2.5392 22.5268 2.61376 22.6322 2.70758 22.7209C2.80141 22.8095 2.91266 22.8798 3.03499 22.9275C3.15732 22.9752 3.28833 22.9996 3.42053 22.9991H7.44726C7.71297 22.9982 7.96753 22.8973 8.15542 22.7184C8.3433 22.5395 8.44927 22.2971 8.45022 22.0441V16.6747C8.45022 15.417 7.35643 14.3755 6.03566 14.3755H4.82467Z" fill="#273B4A"/>
<path d="M17.9749 0.000854528C17.709 0.00134648 17.4542 0.102018 17.2659 0.280878C17.0777 0.459738 16.9715 0.702251 16.9705 0.955444C16.97 1.08145 16.9955 1.20632 17.0458 1.3229C17.096 1.43948 17.1699 1.54549 17.2632 1.63485C17.3565 1.72421 17.4674 1.79517 17.5895 1.84368C17.7116 1.89218 17.8426 1.91728 17.9749 1.91752H19.0148C13.3227 6.57741 7.36269 9.47208 1.22143 10.5556C0.959637 10.6029 0.728196 10.747 0.577855 10.9565C0.427514 11.166 0.370544 11.4236 0.419436 11.6731C0.4673 11.9222 0.616771 12.1431 0.835187 12.2876C1.0536 12.4321 1.32321 12.4884 1.58508 12.4442C8.19747 11.2776 14.5598 8.14886 20.5303 3.21464V4.3433C20.5298 4.46915 20.5553 4.59387 20.6054 4.71033C20.6555 4.82678 20.7292 4.93271 20.8223 5.02204C20.9154 5.11138 21.0261 5.18238 21.148 5.231C21.2699 5.27961 21.4007 5.30489 21.5328 5.30538C21.6657 5.30587 21.7973 5.28133 21.9201 5.23315C22.0429 5.18498 22.1545 5.11413 22.2484 5.0247C22.3423 4.93526 22.4167 4.82901 22.4673 4.71206C22.5179 4.59511 22.5437 4.46978 22.5432 4.3433V1.52071C22.5434 0.693581 21.8078 0.000673425 20.9392 0.000854528H17.9749Z" fill="#179FB7"/>
</g>
<defs>
<clipPath id="clip0_561_3959">
<rect width="24.1543" height="23" fill="white" transform="translate(0.398438)"/>
</clipPath>
</defs>
</svg>
