<svg width="27" height="27" viewBox="0 0 27 27" fill="none" xmlns="http://www.w3.org/2000/svg">
<circle cx="13.5" cy="13.5" r="13.5" fill="#273B4A"/>
<g clip-path="url(#clip0_571_2809)">
<path fill-rule="evenodd" clip-rule="evenodd" d="M13.8211 5.43257C13.9485 5.51822 14.0392 5.65845 14.0563 5.82134H13.0215C13.0395 5.65844 13.1293 5.51821 13.2567 5.43257V4.62063C13.4413 4.66597 13.6349 4.66597 13.8203 4.62063L13.8211 5.43257ZM19.4469 13.3674V21.0494H15.3272V16.6662H11.6729V21.0494H7.5532V13.3674H19.4469ZM6.63759 21.6263H20.3609V23.1721H6.63759V21.6263ZM6.71682 11.4218H20.2833V12.7888H6.71682V11.4218ZM14.1379 18.7369V19.8091C14.1379 19.9695 14.2637 20.0988 14.4197 20.0988C14.5757 20.0988 14.7015 19.9695 14.7015 19.8091V18.7369C14.7015 18.5765 14.5757 18.4472 14.4197 18.4472C14.2637 18.4497 14.1379 18.5782 14.1379 18.7369ZM17.4285 13.8701C16.9818 13.8701 16.6183 14.2438 16.6183 14.7031C16.6183 15.1624 16.9818 15.536 17.4285 15.536C17.8753 15.536 18.2388 15.1624 18.2388 14.7031C18.2388 14.2429 17.8753 13.8701 17.4285 13.8701ZM14.8093 13.8701C14.3625 13.8701 13.999 14.2438 13.999 14.7031C13.999 15.1624 14.3625 15.536 14.8093 15.536C15.256 15.536 15.6195 15.1624 15.6195 14.7031C15.6195 14.2429 15.256 13.8701 14.8093 13.8701ZM12.1908 13.8701C11.7441 13.8701 11.3806 14.2438 11.3806 14.7031C11.3806 15.1624 11.7441 15.536 12.1908 15.536C12.6376 15.536 13.001 15.1624 13.001 14.7031C13.0002 14.2429 12.6376 13.8701 12.1908 13.8701ZM9.57154 13.8701C9.12477 13.8701 8.76131 14.2438 8.76131 14.7031C8.76131 15.1624 9.12477 15.536 9.57154 15.536C10.0183 15.536 10.3818 15.1624 10.3818 14.7031C10.3818 14.2429 10.0183 13.8701 9.57154 13.8701ZM19.3589 4.12673C19.1016 4.12673 18.8941 4.34169 18.8941 4.60451C18.8941 4.86901 19.1032 5.08229 19.3589 5.08229C19.6162 5.08229 19.8236 4.86733 19.8236 4.60451C19.8236 4.33917 19.6145 4.12673 19.3589 4.12673ZM13.5403 2.75305C13.8948 2.75305 14.1831 3.04945 14.1831 3.41386C14.1831 3.77827 13.8948 4.07467 13.5403 4.07467C13.1858 4.07467 12.8975 3.77827 12.8975 3.41386C12.8975 3.04777 13.1858 2.75305 13.5403 2.75305ZM7.64163 4.12673C7.89892 4.12673 8.10638 4.34169 8.10638 4.60451C8.10638 4.86901 7.89728 5.08229 7.64163 5.08229C7.38434 5.08229 7.17688 4.86733 7.17688 4.60451C7.17688 4.33917 7.38597 4.12673 7.64163 4.12673ZM20.2107 5.79849C20.3667 5.79849 20.4925 5.9278 20.4925 6.08818C20.4925 6.24856 20.3667 6.37787 20.2107 6.37787H19.6406V6.73977H20.2107C20.3667 6.73977 20.4925 6.86908 20.4925 7.02946C20.4925 7.18984 20.3667 7.31915 20.2107 7.31915H19.6406V7.68105H20.2107C20.3667 7.68105 20.4925 7.81036 20.4925 7.97074C20.4925 8.13113 20.3667 8.26043 20.2107 8.26043H19.6406V8.62233H20.2107C20.3667 8.62233 20.4925 8.75164 20.4925 8.91202C20.4925 9.07241 20.3667 9.20171 20.2107 9.20171H19.6406V9.56361H20.2107C20.3667 9.56361 20.4925 9.69292 20.4925 9.8533C20.4925 10.0137 20.3667 10.143 20.2107 10.143H19.6406V10.8441H19.077V10.143H18.4743C18.3183 10.143 18.1925 10.0137 18.1925 9.8533C18.1925 9.69292 18.3183 9.56361 18.4743 9.56361H19.077V9.20171H18.4743C18.3183 9.20171 18.1925 9.07241 18.1925 8.91202C18.1925 8.75164 18.3183 8.62233 18.4743 8.62233H19.077V8.26043H18.4743C18.3183 8.26043 18.1925 8.13113 18.1925 7.97074C18.1925 7.81036 18.3183 7.68105 18.4743 7.68105H19.077V7.31915H18.4743C18.3183 7.31915 18.1925 7.18985 18.1925 7.02946C18.1925 6.86909 18.3183 6.73977 18.4743 6.73977H19.077V6.37787H18.4743C18.3183 6.37787 18.1925 6.24857 18.1925 6.08818C18.1925 5.92781 18.3183 5.79849 18.4743 5.79849H19.077V5.62216C19.26 5.67674 19.4576 5.67674 19.6406 5.62216V5.79849H20.2107ZM6.78958 6.37785C6.63358 6.37785 6.50779 6.24854 6.50779 6.08816C6.50779 5.92778 6.63357 5.79847 6.78958 5.79847H7.35969V5.62214C7.54265 5.67672 7.7403 5.67672 7.92325 5.62214V5.79847H8.52602C8.68202 5.79847 8.80781 5.92777 8.80781 6.08816C8.80781 6.24853 8.68203 6.37785 8.52602 6.37785H7.92325V6.73975H8.52602C8.68202 6.73975 8.80781 6.86905 8.80781 7.02944C8.80781 7.18981 8.68203 7.31913 8.52602 7.31913H7.92325V7.68103H8.52602C8.68202 7.68103 8.80781 7.81033 8.80781 7.97072C8.80781 8.1311 8.68203 8.26041 8.52602 8.26041H7.92325V8.62231H8.52602C8.68202 8.62231 8.80781 8.75162 8.80781 8.912C8.80781 9.07239 8.68203 9.20169 8.52602 9.20169H7.92325V9.56359H8.52602C8.68202 9.56359 8.80781 9.6929 8.80781 9.85328C8.80781 10.0137 8.68203 10.143 8.52602 10.143H7.92325V10.8441L7.35969 10.8449V10.1438H6.78958C6.63358 10.1438 6.50779 10.0145 6.50779 9.85412C6.50779 9.69375 6.63357 9.56443 6.78958 9.56443H7.35969V9.20253H6.78958C6.63358 9.20253 6.50779 9.07323 6.50779 8.91284C6.50779 8.75245 6.63357 8.62315 6.78958 8.62315H7.35969V8.26125H6.78958C6.63358 8.26125 6.50779 8.13195 6.50779 7.97156C6.50779 7.81117 6.63357 7.68187 6.78958 7.68187H7.35969V7.31997H6.78958C6.63358 7.31997 6.50779 7.19066 6.50779 7.03028C6.50779 6.86989 6.63357 6.74059 6.78958 6.74059H7.35969V6.37869L6.78958 6.37785ZM5.62978 4.51128C5.51543 4.40297 5.5089 4.22159 5.61181 4.10405C5.71717 3.9865 5.8936 3.97979 6.00793 4.0881C6.15985 4.23252 6.39345 4.29382 6.65072 4.31649C6.59763 4.50457 6.59763 4.70777 6.65072 4.89585C6.27419 4.86898 5.9091 4.77579 5.62978 4.51128ZM8.6363 4.33747C9.9129 4.29885 11.2156 3.95544 12.3403 3.28287C12.3183 3.49363 12.3493 3.70353 12.4286 3.89415C11.2598 4.54572 9.92845 4.88075 8.62498 4.91686C8.68052 4.72878 8.68449 4.52724 8.6363 4.33747ZM14.7441 3.3324C15.8491 3.97306 17.1191 4.29885 18.3647 4.33664C18.3165 4.5264 18.3206 4.72792 18.3777 4.916C17.0987 4.87989 15.7919 4.5583 14.6386 3.92941C14.7194 3.74636 14.7571 3.54314 14.7441 3.3324ZM20.3471 4.3148C20.6043 4.29213 20.8379 4.23083 20.9898 4.08641C21.1042 3.97809 21.2822 3.98649 21.386 4.10236C21.4913 4.21992 21.4832 4.40295 21.368 4.50959C21.0887 4.77409 20.7228 4.86476 20.3446 4.89163C20.4001 4.70606 20.4001 4.50456 20.3471 4.3148ZM12.226 7.47783C12.07 7.47783 11.9442 7.34853 11.9442 7.18814C11.9442 7.02777 12.07 6.89845 12.226 6.89845H14.9571C15.1131 6.89845 15.2389 7.02776 15.2389 7.18814C15.2389 7.34852 15.1131 7.47783 14.9571 7.47783H12.226ZM12.226 6.56344C12.07 6.56344 11.9442 6.43414 11.9442 6.27375C11.9442 6.11338 12.07 5.98406 12.226 5.98406H14.9571C15.1131 5.98406 15.2389 6.11337 15.2389 6.27375C15.2389 6.43413 15.1131 6.56344 14.9571 6.56344H12.226ZM12.226 10.2202C12.07 10.2202 11.9442 10.0909 11.9442 9.93054C11.9442 9.77016 12.07 9.64085 12.226 9.64085H14.9571C15.1131 9.64085 15.2389 9.77015 15.2389 9.93054C15.2389 10.0909 15.1131 10.2202 14.9571 10.2202H12.226ZM12.226 9.30584C12.07 9.30584 11.9442 9.17653 11.9442 9.01615C11.9442 8.85576 12.07 8.72645 12.226 8.72645H14.9571C15.1131 8.72645 15.2389 8.85576 15.2389 9.01615C15.2389 9.17653 15.1131 9.30584 14.9571 9.30584H12.226ZM12.226 8.39229C12.07 8.39229 11.9442 8.26298 11.9442 8.1026C11.9442 7.94221 12.07 7.8129 12.226 7.8129H14.9571C15.1131 7.8129 15.2389 7.94221 15.2389 8.1026C15.2389 8.26298 15.1131 8.39229 14.9571 8.39229H12.226ZM14.0588 6.72892V6.73311H13.0174V6.72892H14.0588ZM14.0588 7.64331V7.6475H13.0174V7.64331H14.0588ZM14.0588 8.55686V8.56106H13.0174V8.55686H14.0588ZM14.0588 9.47125V9.47544H13.0174V9.47125H14.0588ZM14.0588 10.3856V10.8424H13.0174V10.3856H14.0588Z" fill="#D2F8FF"/>
</g>
<defs>
<clipPath id="clip0_571_2809">
<rect width="23" height="23" fill="white" transform="translate(2 2)"/>
</clipPath>
</defs>
</svg>
