<svg width="24" height="23" viewBox="0 0 24 23" fill="none" xmlns="http://www.w3.org/2000/svg">
<path d="M3.33197 2.63617L5.26103 0.707107C5.65155 0.316582 6.28472 0.316583 6.67524 0.707108L10.3137 4.34552C10.7042 4.73605 10.7042 5.36921 10.3137 5.75974L7.86348 8.20992C7.48594 8.58745 7.39235 9.16422 7.63112 9.64177C9.01145 12.4024 11.2499 14.6409 14.0106 16.0212C14.4881 16.26 15.0649 16.1664 15.4424 15.7889L17.8926 13.3387C18.2831 12.9482 18.9163 12.9482 19.3068 13.3387L22.9452 16.9771C23.3358 17.3676 23.3358 18.0008 22.9452 18.3913L21.0162 20.3204C18.9048 22.4317 15.5623 22.6693 13.1735 20.8777L9.85986 18.3925C8.11633 17.0848 6.56751 15.536 5.25986 13.7925L2.77461 10.4788C0.983066 8.09009 1.22062 4.74752 3.33197 2.63617Z" fill="#FF0000"/>
</svg>
