<svg width="20" height="23" viewBox="0 0 20 23" fill="none" xmlns="http://www.w3.org/2000/svg">
<path d="M4.36719 1V4.71849" stroke="#273B4A" stroke-linecap="round"/>
<path d="M4.36719 14.6345V19.5925" stroke="#273B4A" stroke-linecap="round"/>
<path d="M0.304688 5.89876C0.304688 4.90464 1.11057 4.09875 2.10469 4.09875H6.63057C7.62468 4.09875 8.43057 4.90464 8.43057 5.89875V13.4542C8.43057 14.4483 7.62468 15.2542 6.63057 15.2542H2.10469C1.11058 15.2542 0.304688 14.4483 0.304688 13.4542V5.89876Z" fill="#179FB7"/>
<path d="M15.1465 4.71851V10.916" stroke="#273B4A" stroke-linecap="round"/>
<path d="M15.1465 17.1135V22.0715" stroke="#273B4A" stroke-linecap="round"/>
<path d="M11.082 12.0963C11.082 11.1022 11.8879 10.2963 12.882 10.2963H17.4079C18.402 10.2963 19.2079 11.1022 19.2079 12.0963V15.9332C19.2079 16.9274 18.402 17.7332 17.4079 17.7332H12.882C11.8879 17.7332 11.082 16.9274 11.082 15.9332V12.0963Z" fill="#179FB7"/>
</svg>
