<svg width="23" height="22" viewBox="0 0 23 22" fill="none" xmlns="http://www.w3.org/2000/svg">
<path d="M22.4582 5.43289V8.54523L5.39988 19L1.95148 16.8411C1.09922 16.3041 0.404297 15.1534 0.404297 14.2657V5.43289C0.404297 4.20549 1.53191 2.84658 2.90864 2.41918L10.0807 0.172603C10.8281 -0.0575344 12.0344 -0.0575344 12.7817 0.172603L19.9539 2.41918C21.3306 2.84658 22.4582 4.20549 22.4582 5.43289Z" fill="#179FB7"/>
<path d="M22.4579 10V14.2659C22.4579 15.1634 21.7673 16.3269 20.9204 16.8698L13.7932 21.4017C13.1678 21.8006 12.3339 22 11.5 22C10.6661 22 9.83218 21.8006 9.20675 21.4017L6.70508 19.8172L22.4579 10Z" fill="#15212A"/>
<path fill-rule="evenodd" clip-rule="evenodd" d="M10.284 3.38633C12.7157 3.5997 14.5054 5.64979 14.2813 7.96535C14.2404 8.38891 14.1348 8.79202 13.9749 9.16667L18.1435 13.9419C18.8794 14.7849 18.7583 16.0363 17.873 16.737C16.9877 17.4378 15.6735 17.3225 14.9376 16.4795L10.7689 11.7043C10.3528 11.7856 9.91734 11.8107 9.47252 11.7717C7.04075 11.5583 5.25107 9.50824 5.47514 7.19268C5.51838 6.74583 5.63346 6.32175 5.8085 5.92982L7.6997 8.09258L9.8275 7.61903L9.92819 7.53933L10.8064 5.63576L8.91311 3.46893C9.35156 3.37567 9.81252 3.34497 10.284 3.38633Z" fill="#15212A"/>
</svg>
