<svg width="23" height="23" viewBox="0 0 23 23" fill="none" xmlns="http://www.w3.org/2000/svg">
<g clip-path="url(#clip0_561_3462)">
<path d="M13.4124 5.53709H10.5895C10.3629 5.537 10.1418 5.46948 9.95635 5.34374C9.77089 5.21799 9.63004 5.04011 9.55299 4.83431L8.75905 2.70468C8.69886 2.54392 8.67964 2.37152 8.70301 2.20207C8.72638 2.03262 8.79166 1.87109 8.89332 1.73114C8.99499 1.59119 9.13005 1.47694 9.2871 1.39804C9.44415 1.31913 9.61856 1.2779 9.79559 1.27783H14.2064C14.3834 1.2779 14.5578 1.31913 14.7149 1.39804C14.8719 1.47694 15.007 1.59119 15.1086 1.73114C15.2103 1.87109 15.2756 2.03262 15.2989 2.20207C15.3223 2.37152 15.3031 2.54392 15.2429 2.70468L14.449 4.83431C14.3719 5.04011 14.2311 5.21799 14.0456 5.34374C13.8601 5.46948 13.6391 5.537 13.4124 5.53709Z" fill="#2CA9BC"/>
<path d="M22.1049 13.388L18.907 4.96376C18.7382 4.51542 18.391 4.12193 17.9168 3.8416C17.4426 3.56127 16.8667 3.409 16.2744 3.40735H7.28738C6.69503 3.409 6.1191 3.56127 5.64492 3.8416C5.17073 4.12193 4.82351 4.51542 4.6547 4.96376L1.45688 13.388C0.990453 14.6019 0.753575 15.8635 0.753909 17.1321C0.752713 18.2948 1.22314 19.4272 2.09627 20.3634C2.96939 21.2997 4.1993 21.9905 5.60577 22.3346C7.61118 22.796 9.69224 23.0198 11.7809 22.9986C13.8695 23.0198 15.9506 22.796 17.956 22.3346C19.3624 21.9905 20.5924 21.2997 21.4655 20.3634C22.3386 19.4272 22.809 18.2948 22.8078 17.1321C22.8082 15.8635 22.5713 14.6019 22.1049 13.388Z" fill="black"/>
<path d="M12.5556 11.9259H11.4529C11.3067 11.9259 11.1664 11.8698 11.063 11.7699C10.9596 11.6701 10.9015 11.5347 10.9015 11.3935C10.9015 11.2523 10.9596 11.1169 11.063 11.017C11.1664 10.9172 11.3067 10.8611 11.4529 10.8611H14.2096C14.5021 10.8611 14.7825 10.7489 14.9893 10.5492C15.1961 10.3495 15.3123 10.0787 15.3123 9.79626C15.3123 9.51385 15.1961 9.24301 14.9893 9.04332C14.7825 8.84363 14.5021 8.73144 14.2096 8.73144H13.1069C13.1069 8.44903 12.9907 8.17819 12.7839 7.9785C12.5772 7.77881 12.2967 7.66663 12.0042 7.66663C11.7118 7.66663 11.4313 7.77881 11.2245 7.9785C11.0177 8.17819 10.9015 8.44903 10.9015 8.73144V8.78468C10.2316 8.91605 9.63603 9.28312 9.23057 9.81464C8.8251 10.3462 8.63862 11.0042 8.70732 11.661C8.77603 12.3178 9.09502 12.9266 9.60237 13.369C10.1097 13.8115 10.7692 14.0562 11.4529 14.0555H12.5556C12.7018 14.0555 12.842 14.1116 12.9454 14.2115C13.0488 14.3113 13.1069 14.4467 13.1069 14.5879C13.1069 14.7291 13.0488 14.8645 12.9454 14.9644C12.842 15.0642 12.7018 15.1203 12.5556 15.1203H9.79883C9.50638 15.1203 9.2259 15.2325 9.01911 15.4322C8.81231 15.6319 8.69614 15.9027 8.69614 16.1851C8.69614 16.4676 8.81231 16.7384 9.01911 16.9381C9.2259 17.1378 9.50638 17.25 9.79883 17.25H10.9015C10.9015 17.5324 11.0177 17.8032 11.2245 18.0029C11.4313 18.2026 11.7118 18.3148 12.0042 18.3148C12.2967 18.3148 12.5772 18.2026 12.7839 18.0029C12.9907 17.8032 13.1069 17.5324 13.1069 17.25C13.8381 17.1794 14.5102 16.8312 14.9755 16.282C15.4408 15.7329 15.6611 15.0277 15.588 14.3217C15.5149 13.6157 15.1543 12.9666 14.5856 12.5173C14.0169 12.068 13.2867 11.8553 12.5556 11.9259Z" fill="#2CA9BC"/>
</g>
<defs>
<clipPath id="clip0_561_3462">
<rect width="22.0539" height="23" fill="white" transform="translate(0.753906)"/>
</clipPath>
</defs>
</svg>
