<svg width="17" height="17" viewBox="0 0 17 17" fill="none" xmlns="http://www.w3.org/2000/svg">
<path d="M7.08398 8.5H4.95898" stroke="#273B4A" stroke-width="2" stroke-linecap="round"/>
<path d="M9.20898 11.3334H4.95898" stroke="#273B4A" stroke-width="2" stroke-linecap="round"/>
<path d="M4.33398 14.1667H12.6673C13.4957 14.1667 14.1673 13.4951 14.1673 12.6667V5.90278C14.1673 5.74753 14.1312 5.59442 14.0617 5.45556L13.3034 3.93895C12.9647 3.26138 12.2721 2.83337 11.5146 2.83337H5.48672C4.72917 2.83337 4.03665 3.26138 3.69786 3.93895L2.93956 5.45556C2.87013 5.59442 2.83398 5.74753 2.83398 5.90278V12.6667C2.83398 13.4951 3.50556 14.1667 4.33398 14.1667Z" stroke="#273B4A" stroke-width="2" stroke-linecap="round"/>
<path d="M3.54102 5.66663H13.4577" stroke="#273B4A" stroke-width="2" stroke-linecap="round" stroke-linejoin="round"/>
<rect x="9.91602" y="7.79163" width="2.125" height="2.125" rx="0.5" fill="#273B4A"/>
</svg>
