<svg width="19" height="19" viewBox="0 0 19 19" fill="none" xmlns="http://www.w3.org/2000/svg">
<path fill-rule="evenodd" clip-rule="evenodd" d="M16.625 9.5C16.625 13.435 13.435 16.625 9.5 16.625C5.56497 16.625 2.375 13.435 2.375 9.5C2.375 5.56497 5.56497 2.375 9.5 2.375C13.435 2.375 16.625 5.56497 16.625 9.5ZM10.2913 6.33341C10.2913 6.77064 9.9369 7.12508 9.49967 7.12508C9.06245 7.12508 8.70801 6.77064 8.70801 6.33341C8.70801 5.89619 9.06245 5.54175 9.49967 5.54175C9.9369 5.54175 10.2913 5.89619 10.2913 6.33341ZM10.5 13.4583V8.70833H8.5V13.4583H10.5Z" fill="#8A8D94"/>
</svg>
