<svg width="16" height="17" viewBox="0 0 16 17" fill="none" xmlns="http://www.w3.org/2000/svg">
<path d="M1.91612 12.0062L1.91276 12.4809C1.90884 13.0331 2.35336 13.484 2.90563 13.4879L12.9974 13.5596C13.5496 13.5635 14.0005 13.119 14.0044 12.5667L14.0078 12.092" stroke="#8A8D94" stroke-width="2" stroke-linecap="round" stroke-linejoin="round"/>
<path d="M11.0076 8.0638L7.9864 11.0424M5.00777 8.02121L7.9864 11.0424M7.9864 11.0424L8.05737 1.04268" stroke="#8A8D94" stroke-width="2" stroke-linecap="round" stroke-linejoin="round"/>
<path d="M13.9823 12.0921L13.9965 10.0921M1.92693 12.0065L1.94113 10.0066M11.7787 4.07624L13.0391 4.08519C13.5914 4.08911 14.0359 4.53999 14.032 5.09226L14.0249 6.09223M4.24409 4.02277L2.98369 4.01382C2.43141 4.0099 1.98053 4.45443 1.97661 5.0067L1.96952 6.00667" stroke="#8A8D94" stroke-width="2" stroke-linecap="round" stroke-linejoin="round"/>
</svg>
