<svg width="23" height="23" viewBox="0 0 23 23" fill="none" xmlns="http://www.w3.org/2000/svg">
<path d="M7.1875 3.35425V6.22925" stroke="#8A8D94" stroke-linecap="round"/>
<path d="M7.1875 13.8958V17.7291" stroke="#8A8D94" stroke-linecap="round"/>
<path d="M4.79297 7.55C4.79297 6.55589 5.59886 5.75 6.59297 5.75H7.78464C8.77875 5.75 9.58464 6.55589 9.58464 7.55V12.575C9.58464 13.5691 8.77875 14.375 7.78464 14.375H6.59297C5.59886 14.375 4.79297 13.5691 4.79297 12.575V7.55Z" fill="#8A8D94"/>
<path d="M15.8125 6.22925V11.0209" stroke="#8A8D94" stroke-linecap="round"/>
<path d="M15.8125 15.8125V19.6458" stroke="#8A8D94" stroke-linecap="round"/>
<path d="M13.418 12.3417C13.418 11.3476 14.2239 10.5417 15.218 10.5417H16.4096C17.4037 10.5417 18.2096 11.3476 18.2096 12.3417V14.4917C18.2096 15.4859 17.4037 16.2917 16.4096 16.2917H15.218C14.2239 16.2917 13.418 15.4859 13.418 14.4917V12.3417Z" fill="#8A8D94"/>
</svg>
