<svg width="23" height="23" viewBox="0 0 23 23" fill="none" xmlns="http://www.w3.org/2000/svg">
<path d="M10.6043 3.32221L5.62089 5.81391L5.62088 5.81391C4.84034 6.20418 4.45007 6.39932 4.45007 6.70833C4.45007 7.01735 4.84034 7.21249 5.62089 7.60276L10.6043 10.0945C11.0432 10.3139 11.2626 10.4236 11.4987 10.4236C11.7348 10.4236 11.9542 10.3139 12.3931 10.0945L17.3765 7.60276C18.1571 7.21249 18.5473 7.01735 18.5473 6.70833C18.5473 6.39932 18.1571 6.20418 17.3765 5.81391L12.3931 3.32221C11.9542 3.10276 11.7348 2.99303 11.4987 2.99303C11.2626 2.99303 11.0432 3.10276 10.6043 3.32221Z" fill="#8A8D94"/>
<path d="M17.3779 10.6055C18.1581 10.9955 18.5476 11.1912 18.5479 11.5C18.5479 11.809 18.1582 12.0044 17.3779 12.3945L12.3945 14.8867C11.9558 15.1061 11.7359 15.2157 11.5 15.2158C11.264 15.2158 11.0442 15.1061 10.6055 14.8867L5.62207 12.3945C4.84152 12.0043 4.45117 11.809 4.45117 11.5C4.45145 11.1912 4.8418 10.9956 5.62207 10.6055L6.73926 10.0479C7.38417 10.401 8.16191 10.7899 9.07227 11.2451L9.71094 11.5645C10.5887 12.0033 11.0279 12.2226 11.5 12.2227C11.9721 12.2227 12.4112 12.0034 13.2891 11.5645L13.9277 11.2451C14.8376 10.7902 15.615 10.4008 16.2598 10.0479L17.3779 10.6055Z" fill="#8A8D94"/>
<path d="M17.3779 15.3975C18.1582 15.7876 18.5479 15.983 18.5479 16.292C18.5475 16.6007 18.1578 16.7956 17.3779 17.1855L12.3945 19.6777C11.9558 19.8971 11.7359 20.0067 11.5 20.0068C11.264 20.0068 11.0442 19.8971 10.6055 19.6777L5.62207 17.1855C4.84188 16.7955 4.45151 16.6008 4.45117 16.292C4.45117 15.983 4.84152 15.7877 5.62207 15.3975L6.73828 14.8389C7.38342 15.1921 8.16137 15.5817 9.07227 16.0371L9.71094 16.3564C10.5887 16.7953 11.0279 17.0146 11.5 17.0146C11.9721 17.0146 12.4113 16.7953 13.2891 16.3564L13.9277 16.0371C14.8382 15.5819 15.6158 15.192 16.2607 14.8389L17.3779 15.3975Z" fill="#8A8D94"/>
</svg>
