<svg width="22" height="22" viewBox="0 0 22 22" fill="none" xmlns="http://www.w3.org/2000/svg">
<rect x="7.66602" y="12.9561" width="2.66667" height="2.66667" rx="1.33333" transform="rotate(64.7613 7.66602 12.9561)" fill="#8A8D94" stroke="#8A8D94" stroke-width="2"/>
<rect x="14.0137" y="9.22607" width="2.66667" height="2.66667" rx="1.33333" transform="rotate(-115.239 14.0137 9.22607)" fill="#8A8D94" stroke="#8A8D94" stroke-width="2"/>
<path d="M14.3326 8.33879L13.8544 9.66972C13.7423 9.98182 13.6862 10.1379 13.6208 10.2621C13.2051 11.0507 12.3178 11.469 11.445 11.2878C11.3075 11.2592 11.1514 11.2031 10.8393 11.091V11.091C10.5272 10.9789 10.3711 10.9228 10.2336 10.8943C9.36085 10.7131 8.47351 11.1314 8.05785 11.9199C7.99237 12.0442 7.9363 12.2002 7.82418 12.5123L7.34603 13.8433" stroke="#8A8D94" stroke-width="1.5"/>
</svg>
