<svg width="16" height="16" viewBox="0 0 24 24" fill="none" xmlns="http://www.w3.org/2000/svg">
  <path d="M12 2C8.134 2 5 5.134 5 9c0 2.5 1.5 4.5 3 6l4 6 4-6c1.5-1.5 3-3.5 3-6 0-3.866-3.134-7-7-7z" fill="#8A8D94" stroke="#8A8D94" stroke-width="2"  opacity="0.3"/>
  <circle cx="12" cy="9" r="2" fill="#145C72"/>
  <path d="M10 16l1 1 1-1M11 17l1 1 1-1M10 18l1 1 1-1" stroke="#145C72" stroke-width="1.5" stroke-linecap="round"/>
  <path d="M8 20c0.5 0.5 1 1 2 1s1.5-0.5 2-1" stroke="#145C72" stroke-width="1.5" stroke-linecap="round"/>
</svg>