<svg width="19" height="19" viewBox="0 0 19 19" fill="none" xmlns="http://www.w3.org/2000/svg">
<path d="M10.7422 15.1904C11.0183 15.2907 11.325 15.2639 11.5801 15.1181L15.8769 12.6628C16.2103 12.4723 16.625 12.713 16.625 13.0969V13.9598C16.625 14.1393 16.5289 14.3049 16.3731 14.3939L11.2842 17.302C11.1566 17.3749 11.0034 17.388 10.8652 17.3378L2.70411 14.3697C2.50652 14.2978 2.375 14.11 2.375 13.8998V12.8613C2.375 12.5143 2.71979 12.2728 3.04589 12.3914L10.7422 15.1904ZM10.7422 11.2314C11.0183 11.3317 11.325 11.3049 11.5801 11.1592L15.8769 8.70382C16.2103 8.51334 16.625 8.75403 16.625 9.13794V9.6405C16.625 9.81992 16.5289 9.98559 16.3731 10.0746L11.1905 13.0364C11.0628 13.1093 10.9096 13.1224 10.7715 13.0721L2.70411 10.1382C2.50653 10.0664 2.375 9.87858 2.375 9.66834V8.90234C2.375 8.55535 2.71979 8.31385 3.04589 8.43245L10.7422 11.2314ZM16.4042 5.46166C16.5367 5.50988 16.625 5.63589 16.625 5.77697C16.625 5.89736 16.5605 6.00853 16.456 6.06826L11.1905 9.07739C11.0628 9.15031 10.9096 9.1634 10.7715 9.11316L2.64101 6.15629C2.48131 6.09821 2.375 5.94643 2.375 5.7765C2.375 5.63147 2.45271 5.49757 2.57862 5.42561L7.7158 2.48996C7.84341 2.41703 7.99664 2.40395 8.13477 2.45418L16.4042 5.46166Z" fill="#8A8D94"/>
</svg>
