<svg width="16" height="14" viewBox="0 0 16 14" fill="none" xmlns="http://www.w3.org/2000/svg">
<path d="M11.3333 10.75C11.3333 11.9006 12.2661 12.8333 13.4167 12.8333C14.5673 12.8333 15.5 11.9006 15.5 10.75V3C15.5 2.44771 15.0523 2 14.5 2H11.8333C11.5572 2 11.3333 2.22386 11.3333 2.5V10.75Z" fill="#273B4A"/>
<path fill-rule="evenodd" clip-rule="evenodd" d="M8.5 0.333008C9.60446 0.333008 10.4998 1.22859 10.5 2.33301V11.583C10.5 12.7335 11.4326 13.6668 12.583 13.667H3.5C1.84325 13.667 0.500175 12.3237 0.5 10.667V2.33301C0.500176 1.22859 1.39554 0.333008 2.5 0.333008H8.5ZM3.16699 2C2.61471 2 2.16699 2.44772 2.16699 3V4.33301C2.16699 4.88529 2.61471 5.33301 3.16699 5.33301H7.83301C8.38529 5.33301 8.83301 4.88529 8.83301 4.33301V3C8.83301 2.44772 8.38529 2 7.83301 2H3.16699Z" fill="#273B4A"/>
</svg>
